<?xml version="1.0" standalone="no"?>
<!DOCTYPE svg PUBLIC "-//W3C//DTD SVG 1.1//EN" "http://www.w3.org/Graphics/SVG/1.1/DTD/svg11.dtd" >
<svg xmlns="http://www.w3.org/2000/svg">
<metadata>
This is a custom SVG font generated by IcoMoon.
<iconset grid="20"></iconset>
</metadata>
<defs>
<font id="icon-ft" horiz-adv-x="640" >
<font-face units-per-em="640" ascent="608" descent="-32" />
<missing-glyph horiz-adv-x="640" />
<glyph unicode="&#xe000;" d="M 640.00,228.00L 520.00,348.00L 520.00,528.00L 440.00,528.00L 440.00,428.00L 320.00,548.00L0.00,228.00L0.00,208.00L 80.00,208.00L 80.00,8.00L 280.00,8.00L 280.00,128.00L 360.00,128.00L 360.00,8.00L 560.00,8.00L 560.00,208.00L 640.00,208.00 z" data-tags="home, house, building" />
<glyph unicode="&#xe001;" d="M 540.00,608.00 C 595.227,608.00 640.00,563.229 640.00,508.00 C 640.00,485.487 632.556,464.714 620.00,448.00 L 580.00,408.00 L 440.00,548.00 L 480.00,588.00 C 496.714,600.556 517.486,608.00 540.00,608.00 ZM 40.00,148.00L0.00-32.00l 180.00,40.00l 370.00,370.00L 410.00,518.00L 40.00,148.00z M 447.236,380.764l-280.00-280.00l-34.472,34.472l 280.00,280.00L 447.236,380.764z" data-tags="pencil, write, edit, blog, note" />
<glyph unicode="&#xe003;" d="M0.00,528.00l0.00-520.00 l 640.00,0.00 L 640.00,528.00 L0.00,528.00 z M 600.00,48.00L 40.00,48.00 L 40.00,488.00 l 560.00,0.00 L 600.00,48.00 zM 440.00,388.00A60.00,60.00 2700.00 1,0 560.00,388A60.00,60.00 2700.00 1,0 440.00,388zM 560.00,88.00 L 80.00,88.00 L 200.00,408.00 L 360.00,208.00 L 440.00,268.00 Z" data-tags="image, picture, photo, graphic" />
<glyph unicode="&#xe005;" d="M 613.242,507.933C 523.473,520.839, 424.285,528.00, 320.001,528.00c-104.288,0.00-203.472-7.161-293.246-20.067
	C 9.549,440.604,0.00,366.214,0.00,288.00c0.00-78.213, 9.549-152.604, 26.755-219.931C 116.529,55.161, 215.715,48.00, 320.001,48.00
	c 104.284,0.00, 203.47,7.161, 293.241,20.069C 630.45,135.396, 640.00,209.788, 640.00,288.00C 640.00,366.214, 630.45,440.604, 613.242,507.933z
	 M 240.001,168.00L 240.001,408.00 l 200.00-120.00L 240.001,168.00z" data-tags="play, video, movie" />
<glyph unicode="&#xe006;" d="M 400.00,248.00 C 466.169,248.00 526.169,221.084 569.626,177.626 L 513.084,121.084 C 484.113,150.056 444.111,168.00 400.00,168.00 C 355.889,168.00 315.889,150.056 286.916,121.084 L 230.374,177.626 C 273.831,221.084 333.831,248.00 400.00,248.00 ZM 117.157,290.842 C 192.707,366.392 293.156,408.00 400.00,408.00 C 506.844,408.00 607.293,366.392 682.844,290.842 L 626.275,234.275 L 626.275,234.275 C 565.834,294.715 485.475,328.00 400.00,328.00 C 314.524,328.00 234.166,294.715 173.726,234.274 L 117.157,290.842 ZM 617.99,523.976 C 684.679,495.769 744.563,455.396 795.979,403.979 L 795.979,403.979 L 739.411,347.411 C 648.751,438.071 528.211,488.00 400.00,488.00 C 271.788,488.00 151.25,438.071 60.589,347.411 L 4.02,403.98 C 55.438,455.396 115.321,495.769 182.01,523.976 C 251.075,553.187 324.418,568.00 400.00,568.00 C 475.582,568.00 548.924,553.187 617.99,523.976 ZM 360.00,48.00A40.00,40.00 2700.00 1,0 440.00,48A40.00,40.00 2700.00 1,0 360.00,48z" horiz-adv-x="800" data-tags="connection, broadcast, wifi, wave, feed" />
<glyph unicode="&#xe008;" d="M 557.574,490.426l-75.146,75.148C 459.091,588.909, 413.00,608.00, 380.00,608.00L 100.00,608.00 C 67.00,608.00, 40.00,581.00, 40.00,548.00l0.00-520.00 c0.00-33.00, 27.00-60.00, 60.00-60.00l 440.00,0.00 
	c 33.00,0.00, 60.00,27.00, 60.00,60.00L 600.00,388.00 C 600.00,421.00, 580.909,467.091, 557.574,490.426z M 400.00,523.274c 1.373-0.503, 2.782-1.05, 4.224-1.647
	c 11.287-4.676, 19.124-10.11, 21.635-12.621l 75.148-75.149c 2.511-2.511, 7.945-10.346, 12.621-21.634c 0.597-1.441, 1.145-2.851, 1.647-4.223
	L 400.00,408.00 L 400.00,523.274 z M 520.00,48.00L 120.00,48.00 L 120.00,528.00 l 240.00,0.00 l0.00-160.00 l 160.00,0.00 L 520.00,48.00 zM 160.00,288.00L 480.00,288.00L 480.00,248.00L 160.00,248.00zM 160.00,208.00L 480.00,208.00L 480.00,168.00L 160.00,168.00zM 160.00,128.00L 480.00,128.00L 480.00,88.00L 160.00,88.00z" data-tags="file, list, paper, page, document" />
<glyph unicode="&#xe009;" d="M 564.645,483.356l-89.29,89.289C 455.91,592.09, 417.50,608.00, 390.00,608.00L 90.00,608.00 C 62.50,608.00, 40.00,585.50, 40.00,558.00l0.00-540.00 c0.00-27.50, 22.50-50.00, 50.00-50.00l 460.00,0.00 c 27.50,0.00, 50.00,22.50, 50.00,50.00
	L 600.00,398.00 C 600.00,425.50, 584.09,463.911, 564.645,483.356z M 536.361,455.071c 1.956-1.956, 3.906-4.359, 5.80-7.071L 440.00,448.00 L 440.00,550.16 
	c 2.712-1.894, 5.115-3.844, 7.071-5.80L 536.361,455.071z M 560.00,18.00c0.00-5.42-4.58-10.00-10.00-10.00L 90.00,8.00 c-5.42,0.00-10.00,4.58-10.00,10.00L 80.00,558.00 c0.00,5.42, 4.58,10.00, 10.00,10.00
	l 300.00,0.00 c 3.02,0.00, 6.409-0.381, 10.00-1.065L 400.00,408.00 l 158.935,0.00 c 0.684-3.591, 1.065-6.979, 1.065-10.00L 560.00,18.00 z" data-tags="file, paper, page, new, empty, blank, document" />
<glyph unicode="&#xe00a;" d="M 520.00,448.00l-120.00,0.00 L 400.00,488.00 L 280.00,608.00L0.00,608.00 l0.00-480.00 l 240.00,0.00 l0.00-160.00 l 400.00,0.00 L 640.00,328.00 L 520.00,448.00z M 520.00,391.431L 583.431,328.00L 520.00,328.00 L 520.00,391.431 z M 280.00,551.431L 343.431,488.00L 280.00,488.00 
	L 280.00,551.431 z M 40.00,568.00l 200.00,0.00 l0.00-120.00 l 120.00,0.00 l0.00-280.00 L 40.00,168.00 L 40.00,568.00 z M 600.00,8.00L 280.00,8.00 l0.00,120.00 l 120.00,0.00 L 400.00,408.00 l 80.00,0.00 l0.00-120.00 l 120.00,0.00 L 600.00,8.00 z" data-tags="copy, duplicate, files, pages, papers, documents" />
<glyph unicode="&#xe00f;" d="M0.00,528.00L 80.00,528.00L 80.00,128.00L0.00,128.00zM 120.00,528.00L 160.00,528.00L 160.00,128.00L 120.00,128.00zM 200.00,528.00L 240.00,528.00L 240.00,128.00L 200.00,128.00zM 320.00,528.00L 360.00,528.00L 360.00,128.00L 320.00,128.00zM 480.00,528.00L 520.00,528.00L 520.00,128.00L 480.00,128.00zM 600.00,528.00L 640.00,528.00L 640.00,128.00L 600.00,128.00zM 400.00,528.00L 420.00,528.00L 420.00,128.00L 400.00,128.00zM 280.00,528.00L 300.00,528.00L 300.00,128.00L 280.00,128.00zM 540.00,528.00L 560.00,528.00L 560.00,128.00L 540.00,128.00zM0.00,88.00L 40.00,88.00L 40.00,48.00L0.00,48.00zM 120.00,88.00L 160.00,88.00L 160.00,48.00L 120.00,48.00zM 200.00,88.00L 240.00,88.00L 240.00,48.00L 200.00,48.00zM 400.00,88.00L 440.00,88.00L 440.00,48.00L 400.00,48.00zM 600.00,88.00L 640.00,88.00L 640.00,48.00L 600.00,48.00zM 480.00,88.00L 560.00,88.00L 560.00,48.00L 480.00,48.00zM 280.00,88.00L 360.00,88.00L 360.00,48.00L 280.00,48.00z" data-tags="barcode, price" />
<glyph unicode="&#xe010;" d="M 580.00,528.00L 60.00,528.00 C 27.00,528.00,0.00,501.00,0.00,468.00l0.00-360.00 c0.00-33.00, 27.00-60.00, 60.00-60.00l 520.00,0.00 c 33.00,0.00, 60.00,27.00, 60.00,60.00L 640.00,468.00 C 640.00,501.00, 613.00,528.00, 580.00,528.00z M 60.00,488.00
		l 520.00,0.00 c 10.841,0.00, 20.00-9.159, 20.00-20.00l0.00-60.00 L 40.00,408.00 l0.00,60.00 C 40.00,478.841, 49.159,488.00, 60.00,488.00z M 580.00,88.00L 60.00,88.00 c-10.841,0.00-20.00,9.159-20.00,20.00L 40.00,288.00 l 560.00,0.00 l0.00-180.00 
		C 600.00,97.159, 590.841,88.00, 580.00,88.00zM 80.00,208.00L 120.00,208.00L 120.00,128.00L 80.00,128.00zM 160.00,208.00L 200.00,208.00L 200.00,128.00L 160.00,128.00zM 240.00,208.00L 280.00,208.00L 280.00,128.00L 240.00,128.00z" data-tags="credit, card, purchase, payment, ecommerce" />
<glyph unicode="&#xe011;" d="M 440.00,208.00c-40.00-40.00-40.00-80.00-80.00-80.00s-80.00,40.00-120.00,80.00s-80.00,80.00-80.00,120.00s 40.00,40.00, 80.00,80.00S 160.00,568.00, 120.00,568.00S0.00,448.00,0.00,448.00c0.00-80.00, 82.188-242.188, 160.00-320.00
	s 240.00-160.00, 320.00-160.00c0.00,0.00, 120.00,80.00, 120.00,120.00S 480.00,248.00, 440.00,208.00z" data-tags="phone, contact, telephone, support, call" />
<glyph unicode="&#xe012;" d="M 600.00,448.00c 22.091,0.00, 40.00,17.909, 40.00,40.00L 640.00,568.00 l-80.00,0.00 L 560.00,608.00 L 40.00,608.00 C 18.00,608.00,0.00,590.001,0.00,568.00l0.00-560.00 c0.00-22.00, 17.997-40.00, 40.00-40.00l 520.00,0.00 L 560.00,128.00 l 40.00,0.00 
	c 22.091,0.00, 40.00,17.909, 40.00,40.00l0.00,80.00 l-80.00,0.00 l0.00,40.00 l 40.00,0.00 c 22.091,0.00, 40.00,17.909, 40.00,40.00l0.00,80.00 l-80.00,0.00 l0.00,40.00 L 600.00,448.00 z M 360.00,447.794
	c 44.069,0.00, 79.794-35.725, 79.794-79.794s-35.725-79.794-79.794-79.794c-44.069,0.00-79.794,35.725-79.794,79.794
	S 315.931,447.794, 360.00,447.794z M 160.00,8.00L 120.00,8.00 L 120.00,568.00 l 40.00,0.00 L 160.00,8.00 z M 480.00,128.00L 240.00,128.00 l0.00,40.00 c0.00,44.184, 35.818,80.00, 80.00,80.00l0.00,0.00 l 80.00,0.00 c 44.185,0.00, 80.00-35.816, 80.00-80.00
	L 480.00,128.00 z" data-tags="address-book, book, contacts" />
<glyph unicode="&#xe014;" d="M 320.00,608.00C 209.542,608.00, 120.00,518.457, 120.00,408.00c0.00-200.00, 200.00-440.00, 200.00-440.00s 200.00,240.00, 200.00,440.00C 520.00,518.457, 430.456,608.00, 320.00,608.00z M 320.00,288.00
	c-66.275,0.00-120.00,53.725-120.00,120.00s 53.725,120.00, 120.00,120.00s 120.00-53.725, 120.00-120.00S 386.275,288.00, 320.00,288.00z" data-tags="location, map, marker, pin" />
<glyph unicode="&#xe015;" d="M 320.00,608.00C 143.269,608.00,0.00,464.731,0.00,288.00s 143.269-320.00, 320.00-320.00s 320.00,143.269, 320.00,320.00S 496.731,608.00, 320.00,608.00z M 320.00,28.00
	c-143.594,0.00-260.00,116.406-260.00,260.00S 176.406,548.00, 320.00,548.00s 260.00-116.406, 260.00-260.00S 463.594,28.00, 320.00,28.00zM 380.00,348.00l-180.00,100.00l-40.00,0.00 l0.00-40.00 l 100.00-180.00l 180.00-100.00l 40.00,0.00 l0.00,40.00 L 380.00,348.00z M 320.00,248.00c-22.091,0.00-40.00,17.909-40.00,40.00c0.00,22.091, 17.909,40.00, 40.00,40.00
	c 22.091,0.00, 40.00-17.909, 40.00-40.00C 360.00,265.909, 342.091,248.00, 320.00,248.00z" data-tags="compass, direction, map, locate" />
<glyph unicode="&#xe016;" d="M 411.715,139.715L 280.00,271.431L 280.00,448.00L 360.00,448.00L 360.00,304.569L 468.285,196.285 	zM 320.00,608.00C 143.269,608.00,0.00,464.731,0.00,288.00s 143.269-320.00, 320.00-320.00s 320.00,143.269, 320.00,320.00S 496.731,608.00, 320.00,608.00z M 320.00,48.00
		c-132.549,0.00-240.00,107.451-240.00,240.00c0.00,132.549, 107.451,240.00, 240.00,240.00c 132.549,0.00, 240.00-107.451, 240.00-240.00C 560.00,155.451, 452.549,48.00, 320.00,48.00z" data-tags="clock, time, schedule" />
<glyph unicode="&#xe017;" d="M 320.00,528.00C 165.36,528.00, 40.00,402.64, 40.00,248.00s 125.36-280.00, 280.00-280.00s 280.00,125.36, 280.00,280.00S 474.64,528.00, 320.00,528.00z M 320.00,23.00
	c-124.265,0.00-225.00,100.736-225.00,225.00c0.00,124.265, 100.735,225.00, 225.00,225.00c 124.264,0.00, 225.00-100.735, 225.00-225.00C 545.00,123.736, 444.264,23.00, 320.00,23.00z
	 M 584.24,428.516C 594.266,446.049, 600.00,466.355, 600.00,488.00c0.00,66.275-53.725,120.00-120.00,120.00c-38.636,0.00-73.001-18.264-94.95-46.623
	C 467.478,544.355, 538.304,495.629, 584.24,428.516z M 254.95,561.377C 233.002,589.736, 198.636,608.00, 160.00,608.00C 93.725,608.00, 40.00,554.275, 40.00,488.00
	c0.00-21.645, 5.734-41.951, 15.76-59.484C 101.698,495.629, 172.524,544.355, 254.95,561.377z M 280.00,408.00l 40.00,0.00 l0.00-200.00 l-40.00,0.00 L 280.00,408.00 z M 320.00,248.00l 120.00,0.00 l0.00-40.00 l-120.00,0.00 
	L 320.00,248.00 z" data-tags="alarm, clock, time" />
<glyph unicode="&#xe01e;" d="M 320.00,248.00L 480.00,408.00L 360.00,408.00L 360.00,568.00L 280.00,568.00L 280.00,408.00L 160.00,408.00 	zM 465.454,313.455L 420.616,268.616L 583.166,208.00L 320.00,109.864L 56.834,208.00L 219.384,268.616L 174.545,313.455L0.00,248.00L0.00,88.00L 320.00-32.00L 640.00,88.00L 640.00,248.00 	z" data-tags="download, store, save, arrow" />
<glyph unicode="&#xe01f;" d="M 280.00,248.00L 360.00,248.00L 360.00,408.00L 480.00,408.00L 320.00,568.00L 160.00,408.00L 280.00,408.00 	zM 400.00,338.00L 400.00,276.305L 583.166,208.00L 320.00,109.864L 56.834,208.00L 240.00,276.305L 240.00,338.00L0.00,248.00L0.00,88.00L 320.00-32.00L 640.00,88.00L 640.00,248.00 	z" data-tags="upload, load, arrow" />
<glyph unicode="&#xe023;" d="M 476.164-32.00C 547.242,96.77, 559.219,293.191, 280.00,286.64L 280.00,128.00 L 40.00,368.00L 280.00,608.00l0.00-155.233 
	C 614.351,461.481, 651.606,157.634, 476.164-32.00z" data-tags="undo, arrow, left" />
<glyph unicode="&#xe024;" d="M 360.00,452.767L 360.00,608.00 l 240.00-240.00L 360.00,128.00L 360.00,286.64 C 80.781,293.191, 92.758,96.77, 163.837-32.00
	C-11.607,157.634, 25.65,461.481, 360.00,452.767z" data-tags="redo, arrow, right" />
<glyph unicode="&#xe027;" d="M 320.00,568.00 C 496.731,568.00 640.00,451.594 640.00,308.00 C 640.00,164.405 496.731,48.00 320.00,48.00 C 303.027,48.00 286.369,49.084 270.11,51.153 C 201.374-17.584 119.329-29.91 40.00-31.72 L 40.00-14.898 C 82.835,6.089 120.00,44.315 120.00,88.00 C 120.00,94.096 119.526,100.081 118.648,105.935 C 46.275,153.60 0.00,226.406 0.00,308.00 C 0.00,451.594 143.269,568.00 320.00,568.00 Z" data-tags="bubble, comment, chat, talk" />
<glyph unicode="&#xe028;" d="M 680.00,44.771 C 680.00,16.334 696.268-8.296 720.00-20.344 L 720.00-30.305 C 713.359-31.214 706.58-31.695 699.688-31.695 C 657.183-31.695 618.845-13.865 591.736,14.72 C 575.348,10.356 557.985,8.00 540.00,8.00 C 440.589,8.00 360.00,79.635 360.00,168.00 C 360.00,256.365 440.589,328.00 540.00,328.00 C 639.411,328.00 720.00,256.365 720.00,168.00 C 720.00,133.408 707.648,101.38 686.653,75.209 C 682.387,65.944 680.00,55.639 680.00,44.771 ZM 320.00,608.00 C 494.036,608.00 635.62,495.116 639.898,354.55 C 609.159,368.25 575.156,375.50 540.00,375.50 C 480.275,375.50 423.865,354.596 381.164,316.639 C 336.885,277.281 312.50,224.493 312.50,168.00 C 312.50,140.08 318.465,113.07 329.835,88.132 C 326.567,88.054 323.293,88.00 320.00,88.00 C 303.027,88.00 286.369,89.084 270.11,91.153 C 201.374,22.416 119.329,10.09 40.00,8.28 L 40.00,25.102 C 82.835,46.089 120.00,84.315 120.00,128.00 C 120.00,134.096 119.526,140.081 118.648,145.935 C 46.275,193.60 0.00,266.406 0.00,348.00 C 0.00,491.594 143.269,608.00 320.00,608.00 Z" horiz-adv-x="720" data-tags="bubbles, comments, chat, talk" />
<glyph unicode="&#xe029;" d="M 320.00,488.00 C 285.668,488.00 252.507,482.586 221.441,471.911 C 192.246,461.877 166.25,447.696 144.174,429.759 C 102.79,396.135 80.00,352.894 80.00,308.00 C 80.00,282.814 86.992,258.389 100.782,235.405 C 115.002,211.705 136.396,190.039 162.65,172.748 C 181.623,160.253 194.387,140.28 197.76,117.814 C 198.885,110.324 199.59,102.759 199.866,95.236 C 204.535,99.108 209.085,103.265 213.541,107.721 C 228.637,122.816 249.029,131.152 270.105,131.152 C 273.46,131.152 276.831,130.942 280.202,130.512 C 293.311,128.846 306.701,128.00 320.00,128.00 C 354.334,128.00 387.493,133.412 418.559,144.089 C 447.754,154.123 473.75,168.304 495.826,186.241 C 537.21,219.864 560.00,263.106 560.00,308.00 C 560.00,352.894 537.21,396.135 495.826,429.759 C 473.75,447.695 447.754,461.877 418.559,471.911 C 387.493,482.586 354.334,488.00 320.00,488.00 Z M 320.00,568.00 L 320.00,568.00 C 496.731,568.00 640.00,451.594 640.00,308.00 C 640.00,164.405 496.731,48.00 320.00,48.00 C 303.027,48.00 286.369,49.084 270.11,51.153 C 201.374-17.584 119.329-29.91 40.00-31.72 L 40.00-14.898 C 82.835,6.089 120.00,44.315 120.00,88.00 C 120.00,94.096 119.526,100.081 118.648,105.935 C 46.275,153.60 0.00,226.406 0.00,308.00 C 0.00,451.594 143.269,568.00 320.00,568.00 Z" data-tags="bubble, comment, chat, talk" />
<glyph unicode="&#xe02b;" d="M 459.371,104.641c-11.845,1.867-12.115,34.159-12.115,34.159s 34.805,34.16, 42.39,80.095
	c 20.407,0.00, 33.009,48.836, 12.603,66.017c 0.851,18.088, 26.23,141.985-102.249,141.985c-128.477,0.00-103.099-123.897-102.249-141.985
	c-20.409-17.181-7.805-66.017, 12.601-66.017c 7.584-45.935, 42.391-80.095, 42.391-80.095s-0.27-32.291-12.115-34.159
	C 302.474,98.621, 160.00,36.319, 160.00-32.00l 240.00,0.00 l 240.00,0.00 C 640.00,36.319, 497.526,98.621, 459.371,104.641zM 215.034,93.744c 27.559,16.969, 61.016,32.693, 88.461,42.14c-9.845,14.02-20.809,33.085-27.706,55.664
	c-9.629,7.854-17.465,19.082-22.499,32.876c-5.041,13.815-6.951,29.282-5.38,43.552c 1.127,10.245, 4.049,19.791, 8.531,28.18
	c-2.719,29.116-4.634,86.271, 32.78,127.957c 14.509,16.166, 32.847,27.788, 54.813,34.804C 340.112,499.393, 319.559,546.899, 240.00,546.899
	c-128.477,0.00-103.099-123.897-102.249-141.985c-20.409-17.181-7.805-66.017, 12.601-66.017c 7.584-45.935, 42.391-80.095, 42.391-80.095
	s-0.27-32.291-12.115-34.159C 142.474,218.621,0.00,156.319,0.00,88.00l 205.998,0.00 C 208.941,89.921, 211.939,91.837, 215.034,93.744z" data-tags="users, people, group, team, members, community" />
<glyph unicode="&#xe02c;" d="M 389.266,168.79c-13.819,2.199-14.134,40.196-14.134,40.196s 40.605,40.198, 49.455,94.251
	c 23.806,0.00, 38.511,57.466, 14.701,77.685C 440.283,402.206, 469.889,548.00, 320.00,548.00c-149.889,0.00-120.281-145.794-119.29-167.078
	c-23.809-20.219-9.106-77.685, 14.701-77.685c 8.849-54.054, 49.455-94.251, 49.455-94.251s-0.315-37.998-14.134-40.196
	C 206.22,161.707, 40.00,88.394, 40.00,8.00l 280.00,0.00 l 280.00,0.00 C 600.00,88.394, 433.78,161.707, 389.266,168.79z" data-tags="user, profile, avatar, person, talk, member" />
<glyph unicode="&#xe02d;" d="M 200.00,488.00A120.00,120.00 10980.00 1,0 440.00,488A120.00,120.00 10980.00 1,0 200.00,488zM 480.049,328.00l-0.098,0.00 l-22.043,0.00 l-124.44-252.653L 380.00,308.00l-60.00,60.00l-60.00-60.00l 46.531-232.653L 182.093,328.00l-22.044,0.00 l-0.096,0.00 
		C 80.00,328.00, 80.00,274.259, 80.00,208.00l0.00-200.00 l 480.00,0.00 L 560.00,208.00 C 560.00,274.259, 560.00,328.00, 480.049,328.00z" data-tags="user, profile, avatar, person, talk, member, employee, job, official" />
<glyph unicode="&#xe02e;" d="M 640.00,368.00 L 400.00,368.00 L 489.706,457.706 C 444.375,503.035 384.106,528.00 320.00,528.00 C 255.894,528.00 195.625,503.035 150.294,457.706 C 104.965,412.375 80.00,352.106 80.00,288.00 C 80.00,223.894 104.965,163.625 150.294,118.294 C 195.625,72.965 255.894,48.00 320.00,48.00 C 384.106,48.00 444.375,72.965 489.705,118.295 C 493.49,122.079 497.118,125.978 500.615,129.962 L 560.815,77.286 C 502.161,10.308 416.025-32.00 320.00-32.00 C 143.269-32.00 0.00,111.269 0.00,288.00 C 0.00,464.731 143.269,608.00 320.00,608.00 C 408.366,608.00 488.355,572.171 546.26,514.26 L 640.00,608.00 L 640.00,368.00 Z" data-tags="spinner, loading, busy, wait, wheel, repeat" />
<glyph unicode="&#xe02f;" d="M 620.164,63.378L 468.569,192.311c-15.671,14.104-32.431,20.579-45.97,19.954C 458.384,254.183, 480.00,308.564, 480.00,368.00
		C 480.00,500.549, 372.549,608.00, 240.00,608.00C 107.453,608.00,0.00,500.549,0.00,368.00c0.00-132.549, 107.451-240.00, 240.00-240.00c 59.436,0.00, 113.817,21.616, 155.735,57.402
		c-0.625-13.539, 5.85-30.299, 19.954-45.97l 128.934-151.595c 22.076-24.529, 58.139-26.596, 80.138-4.598S 644.692,41.301, 620.164,63.378
		z M 240.00,208.00c-88.365,0.00-160.00,71.635-160.00,160.00S 151.635,528.00, 240.00,528.00s 160.00-71.635, 160.00-160.00S 328.366,208.00, 240.00,208.00zM 120.00,408.00L 360.00,408.00L 360.00,328.00L 120.00,328.00z" data-tags="zoom out, smaller, scale, reduce" />
<glyph unicode="&#xe030;" d="M 620.164,63.378L 468.569,192.311c-15.671,14.104-32.431,20.579-45.97,19.954C 458.384,254.183, 480.00,308.564, 480.00,368.00
		C 480.00,500.549, 372.549,608.00, 240.00,608.00C 107.453,608.00,0.00,500.549,0.00,368.00c0.00-132.549, 107.451-240.00, 240.00-240.00c 59.436,0.00, 113.817,21.616, 155.735,57.402
		c-0.625-13.539, 5.85-30.299, 19.954-45.97l 128.934-151.595c 22.076-24.529, 58.139-26.596, 80.138-4.598S 644.692,41.301, 620.164,63.378
		z M 240.00,208.00c-88.365,0.00-160.00,71.635-160.00,160.00S 151.635,528.00, 240.00,528.00s 160.00-71.635, 160.00-160.00S 328.366,208.00, 240.00,208.00zM 280.00,488.00L 200.00,488.00L 200.00,408.00L 120.00,408.00L 120.00,328.00L 200.00,328.00L 200.00,248.00L 280.00,248.00L 280.00,328.00L 360.00,328.00L 360.00,408.00L 280.00,408.00 	z" data-tags="zoom in, enlarge, scale" />
<glyph unicode="&#xe031;" d="M 620.164,63.378L 468.569,192.311c-15.671,14.104-32.431,20.579-45.97,19.954C 458.384,254.183, 480.00,308.564, 480.00,368.00
	C 480.00,500.549, 372.549,608.00, 240.00,608.00C 107.453,608.00,0.00,500.549,0.00,368.00c0.00-132.549, 107.451-240.00, 240.00-240.00c 59.436,0.00, 113.817,21.616, 155.735,57.402
	c-0.625-13.539, 5.85-30.299, 19.954-45.97l 128.934-151.595c 22.076-24.529, 58.139-26.596, 80.138-4.598S 644.692,41.301, 620.164,63.378z
	 M 240.00,208.00c-88.365,0.00-160.00,71.635-160.00,160.00S 151.635,528.00, 240.00,528.00s 160.00-71.635, 160.00-160.00S 328.366,208.00, 240.00,208.00z" data-tags="search, magnifier, lookup, find" />
<glyph unicode="&#xe034;" d="M 440.00,608.00c-110.456,0.00-200.00-89.543-200.00-200.00c0.00-12.516, 1.161-24.76, 3.36-36.64L0.00,128.00l0.00-120.00 c0.00-22.091, 17.909-40.00, 40.00-40.00
	l 40.00,0.00 l0.00,40.00 l 80.00,0.00 l0.00,80.00 l 80.00,0.00 l0.00,80.00 l 80.00,0.00 l 51.901,51.901C 393.158,212.204, 416.086,208.00, 440.00,208.00c 110.456,0.00, 200.00,89.543, 200.00,200.00S 550.456,608.00, 440.00,608.00z
	 M 499.921,407.921c-33.138,0.00-60.00,26.862-60.00,60.00s 26.862,60.00, 60.00,60.00s 60.00-26.862, 60.00-60.00S 533.059,407.921, 499.921,407.921z" data-tags="key, password, login, log in, signin, sign in" />
<glyph unicode="&#xe038;" d="M 280.00,528.00l0.00,10.00 c0.00,16.50-13.50,30.00-30.00,30.00l-100.00,0.00 c-16.50,0.00-30.00-13.50-30.00-30.00l0.00-10.00 L0.00,528.00 l0.00-80.00 l 120.00,0.00 l0.00-10.00 c0.00-16.50, 13.50-30.00, 30.00-30.00l 100.00,0.00 c 16.50,0.00, 30.00,13.50, 30.00,30.00l0.00,10.00 
		l 360.00,0.00 L 640.00,528.00 L 280.00,528.00 z M 160.00,448.00L 160.00,528.00 l 80.00,0.00 l0.00-80.00 L 160.00,448.00 zM 520.00,338.00c0.00,16.50-13.50,30.00-30.00,30.00l-100.00,0.00 c-16.50,0.00-30.00-13.50-30.00-30.00l0.00-10.00 L0.00,328.00 l0.00-80.00 l 360.00,0.00 l0.00-10.00 c0.00-16.50, 13.50-30.00, 30.00-30.00l 100.00,0.00 c 16.50,0.00, 30.00,13.50, 30.00,30.00l0.00,10.00 
		l 120.00,0.00 l0.00,80.00 l-120.00,0.00 L 520.00,338.00 z M 400.00,248.00l0.00,80.00 l 80.00,0.00 l0.00-80.00 L 400.00,248.00 zM 280.00,138.00c0.00,16.50-13.50,30.00-30.00,30.00l-100.00,0.00 c-16.50,0.00-30.00-13.50-30.00-30.00l0.00-10.00 L0.00,128.00 l0.00-80.00 l 120.00,0.00 l0.00-10.00 c0.00-16.50, 13.50-30.00, 30.00-30.00l 100.00,0.00 c 16.50,0.00, 30.00,13.50, 30.00,30.00l0.00,10.00 
		l 360.00,0.00 l0.00,80.00 L 280.00,128.00 L 280.00,138.00 z M 160.00,48.00l0.00,80.00 l 80.00,0.00 l0.00-80.00 L 160.00,48.00 z" data-tags="settings, preferences, options" />
<glyph unicode="&#xe03a;" d="M 640.00,227.941l0.00,120.117 l-91.734,15.289c-3.724,11.333-8.264,22.293-13.559,32.813l 54.034,75.646l-84.935,84.936l-75.516-53.94
		c-10.569,5.346-21.586,9.93-32.98,13.689L 380.059,608.00l-120.117,0.00 l-15.251-91.51c-11.394-3.759-22.411-8.343-32.979-13.689
		l-75.517,53.94l-84.936-84.936l 54.034-75.648c-5.294-10.519-9.834-21.479-13.558-32.811L0.00,348.059l0.00-120.117 l 91.949-15.325
		c 3.725-11.23, 8.256-22.093, 13.526-32.519l-54.218-75.905l 84.936-84.935l 76.034,54.309c 10.376-5.219, 21.181-9.705, 32.352-13.396
		L 259.941-32.00l 120.117,0.00 l 15.361,92.171c 11.171,3.691, 21.976,8.178, 32.354,13.395l 76.032-54.307l 84.935,84.935l-54.215,75.904
		c 5.27,10.426, 9.799,21.289, 13.525,32.52L 640.00,227.941z M 320.00,208.00c-44.182,0.00-80.00,35.816-80.00,80.00c0.00,44.182, 35.818,80.00, 80.00,80.00
		c 44.184,0.00, 80.00-35.818, 80.00-80.00C 400.00,243.816, 364.184,208.00, 320.00,208.00z" data-tags="cog, preferences, settings, gear, generate, control, options" />
<glyph unicode="&#xe03b;" d="M 280.00,248.00L 280.00,528.00 C 125.36,528.00,0.00,402.64,0.00,248.00s 125.36-280.00, 280.00-280.00s 280.00,125.36, 280.00,280.00c0.00,45.021-10.642,87.553-29.522,125.239
		L 280.00,248.00zM 570.477,453.239C 524.507,544.999, 429.619,608.00, 320.00,608.00l0.00-280.00 L 570.477,453.239z" data-tags="pie, statistics, stats, chart, graph" />
<glyph unicode="&#xe03c;" d="M 80.00,48.00 L 640.00,48.00 L 640.00-32.00 L 0.00-32.00 L 0.00,608.00 L 80.00,608.00 ZM 180.00,88.00 C 146.862,88.00 120.00,114.863 120.00,148.00 C 120.00,181.137 146.862,208.00 180.00,208.00 C 181.767,208.00 183.514,207.907 185.242,207.759 L 249.737,315.25 C 243.588,324.669 240.00,335.914 240.00,348.001 C 240.00,381.139 266.863,408.001 300.00,408.001 C 333.137,408.001 360.00,381.139 360.00,348.001 C 360.00,335.913 356.413,324.669 350.262,315.25 L 414.757,207.759 C 416.486,207.907 418.233,208.00 420.00,208.00 C 421.335,208.00 422.655,207.941 423.969,207.856 L 530.441,394.183 C 523.856,403.812 520.00,415.455 520.00,428.001 C 520.00,461.139 546.862,488.001 580.00,488.001 C 613.138,488.001 640.00,461.139 640.00,428.001 C 640.00,394.864 613.138,368.001 580.00,368.001 C 578.663,368.001 577.345,368.06 576.031,368.146 L 469.559,181.819 C 476.144,172.19 480.00,160.546 480.00,148.00 C 480.00,114.863 453.137,88.00 420.00,88.00 C 386.863,88.00 360.00,114.863 360.00,148.00 C 360.00,160.088 363.587,171.332 369.736,180.751 L 305.243,288.241 C 303.514,288.093 301.767,288.00 300.00,288.00 C 298.233,288.00 296.486,288.091 294.757,288.241 L 230.263,180.75 C 236.412,171.332 240.00,160.088 240.00,148.00 C 240.00,114.863 213.137,88.00 180.00,88.00 Z" data-tags="stats, graph, plot, statistics, chart" />
<glyph unicode="&#xe03e;" d="M 180.00,368.00L 60.00,368.00 c-11.00,0.00-20.00-9.00-20.00-20.00l0.00-360.00 c0.00-11.00, 9.00-20.00, 20.00-20.00l 120.00,0.00 c 11.00,0.00, 20.00,9.00, 20.00,20.00L 200.00,348.00 C 200.00,359.00, 191.00,368.00, 180.00,368.00z M 180.00,8.00
		L 60.00,8.00 L 60.00,168.00 l 120.00,0.00 L 180.00,8.00 zM 380.00,448.00l-120.00,0.00 c-11.00,0.00-20.00-9.00-20.00-20.00l0.00-440.00 c0.00-11.00, 9.00-20.00, 20.00-20.00l 120.00,0.00 c 11.00,0.00, 20.00,9.00, 20.00,20.00L 400.00,428.00 C 400.00,439.00, 391.00,448.00, 380.00,448.00z
		 M 380.00,8.00l-120.00,0.00 L 260.00,208.00 l 120.00,0.00 L 380.00,8.00 zM 580.00,528.00l-120.00,0.00 c-11.00,0.00-20.00-9.00-20.00-20.00l0.00-520.00 c0.00-11.00, 9.00-20.00, 20.00-20.00l 120.00,0.00 c 11.00,0.00, 20.00,9.00, 20.00,20.00L 600.00,508.00 C 600.00,519.00, 591.00,528.00, 580.00,528.00z M 580.00,8.00l-120.00,0.00 
		L 460.00,248.00 l 120.00,0.00 L 580.00,8.00 z" data-tags="bars, stats, statistics, chart, graph" />
<glyph unicode="&#xe041;" d="M 480.00,208.02l-114.262,114.264L 640.00,528.002L 559.994,608.00l-342.825-137.151L 109.231,578.79C 78.119,609.901, 34.668,617.356, 12.668,595.357
	C-9.331,573.359-1.875,529.904, 29.236,498.795l 107.929-107.927L0.00,48.004L 79.994-32.00L 285.738,242.293l 114.266-114.267l0.00-159.987 L 480.00-31.963 
	l 39.995,119.993l 119.993,39.998l0.00,79.995 L 480.00,208.022 L 480.00,208.02 z" data-tags="airplane, flight, fly, plane, travel, vacation" />
<glyph unicode="&#xe044;" d="M 240.00,608.00L0.00,288.00L 240.00,288.00L 80.00-32.00L 640.00,368.00L 320.00,368.00L 560.00,608.00 z" data-tags="lightning, power" />
<glyph unicode="&#xe045;" d="M 400.00,516.383l0.00-84.974 c 22.629-9.877, 43.438-24.005, 61.421-41.988C 499.197,351.646, 520.00,301.421, 520.00,248.00
		s-20.804-103.646-58.579-141.421C 423.646,68.804, 373.423,48.00, 320.00,48.00s-103.646,20.804-141.421,58.579
		C 140.804,144.354, 120.00,194.579, 120.00,248.00s 20.804,103.646, 58.579,141.421c 17.984,17.984, 38.792,32.111, 61.421,41.989L 240.00,516.383 
		C 124.345,481.957, 40.00,374.838, 40.00,248.00c0.00-154.64, 125.361-280.00, 280.00-280.00c 154.64,0.00, 280.00,125.36, 280.00,280.00
		C 600.00,374.838, 515.656,481.957, 400.00,516.383zM 280.00,608.00L 360.00,608.00L 360.00,288.00L 280.00,288.00z" data-tags="switch, power, turn off, off, shutdown" />
<glyph unicode="&#xe046;" d="M 280.00,111.431L 151.716,259.715L 188.284,296.284L 280.00,224.569L 451.715,376.284L 488.285,339.716 	zM 519.858,528.00c 0.049-0.041, 0.101-0.094, 0.143-0.144l0.00-479.714 c-0.041-0.049-0.094-0.101-0.143-0.143L 120.143,48.00 
	c-0.05,0.041-0.101,0.094-0.143,0.143L 120.00,527.857 c 0.041,0.05, 0.094,0.101, 0.144,0.143L 40.00,528.00 l0.00-480.00 c0.00-44.00, 36.00-80.00, 80.00-80.00l 400.00,0.00 
	c 44.00,0.00, 80.00,36.00, 80.00,80.00L 600.00,528.00 L 519.858,528.00 z M 400.00,528.00L 400.00,568.00 c0.00,22.091-17.909,40.00-40.00,40.00l-80.00,0.00 c-22.091,0.00-40.00-17.909-40.00-40.00l0.00-40.00 l-80.00,0.00 l0.00-80.00 l 320.00,0.00 L 480.00,528.00 L 400.00,528.00 z
	 M 360.00,528.00l-80.00,0.00 L 280.00,568.00 l 80.00,0.00 L 360.00,528.00 z" data-tags="signup, checkmark, board, agreement, register" />
<glyph unicode="&#xe04a;" d="M0.00,368.00l 440.00,0.00 l0.00-80.00 L0.00,288.00 L0.00,368.00 z M0.00,488.00l 440.00,0.00 l0.00-80.00 L0.00,408.00 L0.00,488.00 z M0.00,248.00l 440.00,0.00 l0.00-80.00 L0.00,168.00 L0.00,248.00 z M0.00,128.00l 440.00,0.00 l0.00-80.00 L0.00,48.00 L0.00,128.00 z M 480.00,248.00l 80.00-120.00l 80.00,120.00L 480.00,248.00 z M 640.00,288.00
	l-80.00,120.00l-80.00-120.00L 640.00,288.00 z" data-tags="menu, options" />
<glyph unicode="&#xe04b;" d="M 546.275,514.274 C 606.714,453.834 640.00,373.474 640.00,287.999 C 640.00,202.524 606.714,122.165 546.275,61.725 C 485.834,1.286 405.475-32.00 320.00-32.00 C 234.525-32.00 154.166,1.286 93.725,61.725 C 33.286,122.165 0.00,202.524 0.00,287.999 C 0.00,373.474 33.284,453.834 93.725,514.274 C 154.166,574.714 234.525,608.00 320.00,608.00 C 405.475,608.00 485.834,574.714 546.275,514.274 Z M 517.99,90.009 C 557.401,129.421 583.606,178.514 594.41,231.922 C 585.989,219.525 577.934,214.926 572.945,242.676 C 567.808,287.92 526.253,259.019 500.123,275.089 C 472.62,256.553 410.806,311.127 421.311,249.574 C 437.52,221.81 508.816,286.73 473.279,227.985 C 450.607,186.975 390.378,96.152 398.212,49.074 C 399.201-19.516 328.129,34.771 303.641,57.524 C 287.169,103.099 298.027,182.757 254.955,205.077 C 208.204,207.108 168.077,211.356 149.959,263.621 C 139.055,301.014 161.561,356.68 201.633,365.274 C 260.289,402.127 281.241,322.115 336.251,320.627 C 353.331,338.499 399.886,344.181 403.746,364.221 C 367.653,370.59 449.539,394.57 400.291,408.21 C 373.123,405.015 355.618,380.039 370.061,358.861 C 317.413,346.585 315.726,435.051 265.118,407.148 C 263.831,363.029 182.479,392.844 236.97,401.79 C 255.692,409.97 206.432,433.675 233.045,429.368 C 246.118,430.078 290.127,445.50 278.218,455.869 C 302.724,471.081 323.317,419.437 347.304,457.045 C 364.621,485.961 340.041,491.30 318.335,476.643 C 306.097,490.345 339.941,519.94 369.793,532.729 C 379.741,536.991 389.244,539.314 396.509,538.656 C 411.545,521.286 439.353,518.277 440.808,540.745 C 403.569,558.579 362.51,568.00 320.00,568.00 C 258.986,568.00 200.956,548.61 152.933,512.756 C 165.839,506.844 173.165,499.483 160.731,490.071 C 151.071,461.287 111.875,422.649 77.466,428.119 C 59.60,397.309 47.834,363.365 42.804,327.789 C 71.624,318.254 78.269,299.382 72.076,293.07 C 57.391,280.265 48.366,262.114 43.716,242.244 C 53.098,184.846 80.074,131.946 122.01,90.009 C 174.895,37.125 245.209,8.00 320.00,8.00 C 394.79,8.00 465.105,37.125 517.99,90.009 Z" data-tags="earth, globe, web, internet, sphere, planet" />
<glyph unicode="&#xe04c;" d="M 520.00,500.309 C 567.791,500.309 610.683,526.323 640.00,546.00 L 640.00,173.694 C 610.683,154.015 567.791,128.00 520.00,128.00 C 472.209,128.00 429.317,142.169 400.00,161.847 C 370.683,181.522 327.791,195.691 280.00,195.691 C 232.209,195.691 189.319,171.369 160.00,151.694 L 160.00,524.00 C 189.319,543.678 232.209,568.00 280.00,568.00 C 327.791,568.00 370.683,553.832 400.00,534.155 C 429.317,514.478 472.209,500.309 520.00,500.309 ZM 80.00,608.00 C 102.091,608.00 120.00,590.091 120.00,568.00 L 120.00-32.00 L 40.00-32.00 L 40.00,568.00 C 40.00,590.091 57.909,608.00 80.00,608.00 Z" data-tags="flag, report, mark" />
<glyph unicode="&#xe04d;" d="M 436.145,403.595l-40.595,40.576L 192.544,241.207c-33.634-33.62-33.634-88.155,0.00-121.778
	c 33.627-33.62, 88.162-33.62, 121.796,0.00l 243.607,243.568c 56.071,56.039, 56.071,146.914,0.00,202.954
	c-56.041,56.065-146.945,56.065-202.989,0.00L 99.169,310.235l 0.021-0.02c-0.181-0.19-0.383-0.36-0.547-0.529
	c-78.189-78.185-78.189-204.91,0.00-283.066c 78.159-78.16, 204.917-78.16, 283.118,0.00c 0.171,0.171, 0.323,0.355, 0.512,0.547l 0.02-0.021
	l 174.582,174.557l-40.616,40.575L 341.688,67.74l-0.01,0.00 c-0.185-0.168-0.352-0.356-0.529-0.527
	c-55.671-55.661-146.237-55.661-201.923,0.00c-55.664,55.651-55.664,146.201,0.00,201.861c 0.19,0.19, 0.378,0.364, 0.555,0.529l-0.029,0.037
	l 255.80,255.729c 33.57,33.586, 88.215,33.586, 121.804,0.00c 33.57-33.584, 33.57-88.218,0.00-121.775L 273.749,160.031
	c-11.21-11.201-29.409-11.201-40.607,0.00c-11.184,11.179-11.184,29.395,0.00,40.575L 436.145,403.595z" data-tags="attachment, paperclip" />
<glyph unicode="&#xe04e;" d="M 524.576,422.74 C 573.104,388.346 612.933,342.058 640.00,288.00 C 580.549,169.276 459.571,88.00 320.00,88.00 C 280.896,88.00 243.255,94.382 208.014,106.177 L 256.736,154.90 C 277.398,150.337 298.594,148.00 320.00,148.00 C 375.974,148.00 430.534,163.929 477.779,194.065 C 515.38,218.05 547.244,250.175 571.176,288.001 C 548.019,324.605 517.418,355.845 481.395,379.56 L 524.576,422.74 ZM 320.00,171.75 C 305.798,171.75 292.03,173.61 278.92,177.084 L 474.661,372.824 C 478.137,359.716 480.00,345.952 480.00,331.75 C 480.00,243.385 408.365,171.75 320.00,171.75 ZM 600.00,608.00l-33.586,0.00 L 429.156,470.743C 394.734,481.945, 358.06,488.00, 320.00,488.00C 180.426,488.00, 59.449,406.724,0.00,288.00
		c 26.661-53.245, 65.705-98.942, 113.246-133.168L0.00,41.586L0.00,8.00 l 33.586,0.00 L 600.00,574.414L 600.00,608.00 z M 260.00,411.75c 30.027,0.00, 54.904-22.059, 59.307-50.856
		l-68.453-68.453C 222.059,296.846, 200.00,321.723, 200.00,351.75C 200.00,384.887, 226.863,411.75, 260.00,411.75z M 68.823,288.00
		c 23.933,37.828, 55.796,69.953, 93.396,93.935c 2.449,1.563, 4.923,3.076, 7.411,4.563C 163.406,369.417, 160.00,350.984, 160.00,331.75
		c0.00-36.578, 12.281-70.28, 32.936-97.226l-36.594-36.594C 121.297,221.456, 91.496,252.162, 68.823,288.00z" data-tags="eye-blocked, views, vision, visit, banned, blocked, forbidden, private" />
<glyph unicode="&#xe04f;" d="M 320.00,488.00C 180.426,488.00, 59.449,406.724,0.00,288.00c 59.449-118.724, 180.426-200.00, 320.00-200.00c 139.571,0.00, 260.549,81.276, 320.00,200.00
	C 580.553,406.724, 459.571,488.00, 320.00,488.00z M 477.781,381.935c 37.601-23.984, 69.464-56.109, 93.396-93.935
	c-23.933-37.826-55.796-69.951-93.398-93.936C 430.534,163.929, 375.974,148.00, 320.00,148.00c-55.975,0.00-110.535,15.929-157.781,46.065
	C 124.619,218.048, 92.756,250.173, 68.823,288.00c 23.933,37.828, 55.796,69.953, 93.396,93.935c 2.449,1.563, 4.923,3.076, 7.411,4.563
	C 163.406,369.417, 160.00,350.984, 160.00,331.75c0.00-88.365, 71.635-160.00, 160.00-160.00s 160.00,71.635, 160.00,160.00c0.00,19.234-3.406,37.668-9.63,54.749
	C 472.858,385.013, 475.331,383.498, 477.781,381.935z M 320.00,351.75c0.00-33.138-26.862-60.00-60.00-60.00s-60.00,26.862-60.00,60.00s 26.862,60.00, 60.00,60.00
	S 320.00,384.887, 320.00,351.75z" data-tags="eye, views, vision, visit" />
<glyph unicode="&#xe050;" d="M 120.00,608.00L 120.00-32.00L 320.00,168.00L 520.00-32.00L 520.00,608.00 z" data-tags="bookmark, ribbon" />
<glyph unicode="&#xe054;" d="M 640.00,359.844l-221.112,32.13L 320.00,592.338l-98.885-200.364L0.00,359.844l 160.00-155.961L 122.23-16.338L 320.00,87.636l 197.77-103.974
	l-37.771,220.22L 640.00,359.844z M 320.00,137.064l-0.589-0.31L 320.00,493.484l 69.835-141.498l 156.148-22.69l-112.993-110.139l 26.674-155.519
	L 320.00,137.064z" data-tags="star, rate, half" />
<glyph unicode="&#xe055;" d="M 640.00,359.844l-221.112,32.13L 320.00,592.338l-98.885-200.364L0.00,359.844l 160.00-155.961L 122.23-16.338L 320.00,87.636l 197.77-103.974
	l-37.771,220.22L 640.00,359.844z M 320.00,137.064l-139.664-73.425l 26.672,155.519l-112.991,110.139l 156.15,22.69L 320.00,493.484l 69.835-141.498
	l 156.148-22.69l-112.993-110.139l 26.674-155.519L 320.00,137.064z" data-tags="star, rate, favorite, bookmark" />
<glyph unicode="&#xe056;" d="M 640.00,359.844L 418.888,391.974L 320.00,592.338l-98.885-200.364L0.00,359.844l 160.00-155.961L 122.23-16.338L 320.00,87.636l 197.77-103.974
	l-37.771,220.22L 640.00,359.844z" data-tags="star, rate, favorite, bookmark" />
<glyph unicode="&#xe057;" d="M 640.00,384.153 C 640.00,330.176 616.739,281.634 579.694,248.00 L 580.00,248.00 L 380.00,48.00 C 360.00,28.00 340.00,8.00 320.00,8.00 C 300.00,8.00 280.00,28.00 260.00,48.00 L 60.00,248.00 L 60.306,248.00 C 23.261,281.634 0.00,330.176 0.00,384.153 C 0.00,485.689 82.311,568.00 183.847,568.00 C 237.824,568.00 286.366,544.739 320.00,507.694 C 353.634,544.739 402.176,568.00 456.153,568.00 C 557.688,568.00 640.00,485.689 640.00,384.153 Z" data-tags="heart, like, love, favorite" />
<glyph unicode="&#xe058;" d="M 640.00,384.153C 640.00,485.689, 557.688,568.00, 456.153,568.00C 402.176,568.00, 353.634,544.739, 320.00,507.694C 286.366,544.739, 237.824,568.00, 183.847,568.00
	C 82.311,568.00,0.00,485.689,0.00,384.153C0.00,330.176, 23.261,281.634, 60.306,248.00L 60.00,248.00 l 200.00-200.00c 20.00-20.00, 40.00-40.00, 60.00-40.00s 40.00,20.00, 60.00,40.00l 200.00,200.00l-0.306,0.00 
	C 616.739,281.634, 640.00,330.176, 640.00,384.153z M 525.918,307.23L 323.431,104.569c-1.049-1.049-2.208-2.208-3.431-3.425
	c-1.225,1.219-2.384,2.376-3.431,3.425L 114.083,307.229C 92.104,327.184, 80.00,354.502, 80.00,384.153C 80.00,441.414, 126.586,488.00, 183.847,488.00
	c 29.65,0.00, 56.969-12.104, 76.922-34.082L 320.00,388.68l 59.23,65.236C 399.185,475.896, 426.502,488.00, 456.153,488.00
	C 513.414,488.00, 560.00,441.414, 560.00,384.153C 560.00,354.502, 547.895,327.184, 525.918,307.23z" data-tags="heart, like, love, favorite" />
<glyph unicode="&#xe059;" d="M 580.00,248.00 C 625.625,248.00 600.00,128.00 560.00,128.00 C 580.00,128.00 560.00,28.00 520.00,28.00 C 520.00-12.00 480.00-32.00 440.00-32.00 C 271.03-32.00 330.46,10.281 160.00,28.00 L 160.00,348.00 C 310.576,393.167 460.00,506.39 460.00,608.00 C 493.125,608.00 580.00,568.00 460.00,368.00 C 460.00,368.00 560.00,368.00 580.00,368.00 C 640.00,368.00 620.00,248.00 580.00,248.00 ZM 120.00,348.00 L 120.00,28.00 L 160.00,28.00 L 160.00,8.00 L 80.00,8.00 C 58.00,8.00 40.00,35.00 40.00,68.00 L 40.00,308.00 C 40.00,341.00 58.00,368.00 80.00,368.00 L 160.00,368.00 L 160.00,348.00 L 120.00,348.00 Z" data-tags="thumbs-up, up, like, rate, vote up" />
<glyph unicode="&#xe05a;" d="M 60.00,328.00 C 14.375,328.00 40.00,448.00 80.00,448.00 C 60.00,448.00 80.00,548.00 120.00,548.00 C 120.00,588.00 160.00,608.00 200.00,608.00 C 368.97,608.00 309.54,565.719 480.00,548.00 L 480.00,228.00 C 329.424,182.832 180.00,69.61 180.00-32.00 C 146.875-32.00 60.00,8.00 180.00,208.00 C 180.00,208.00 80.00,208.00 60.00,208.00 C 0.00,208.00 20.00,328.00 60.00,328.00 ZM 520.00,228.00 L 520.00,548.00 L 480.00,548.00 L 480.00,568.00 L 560.00,568.00 C 582.00,568.00 600.00,541.00 600.00,508.00 L 600.00,268.00 C 600.00,235.00 582.00,208.00 560.00,208.00 L 480.00,208.00 L 480.00,228.00 L 520.00,228.00 Z" data-tags="thumbs-up, up, like, rate, vote down" />
<glyph unicode="&#xe05c;" d="M 320.00,548.00 C 250.551,548.00 185.26,520.955 136.153,471.847 C 87.045,422.74 60.00,357.449 60.00,288.00 C 60.00,218.551 87.045,153.26 136.153,104.153 C 185.26,55.045 250.551,28.00 320.00,28.00 C 389.449,28.00 454.74,55.045 503.847,104.153 C 552.955,153.26 580.00,218.551 580.00,288.00 C 580.00,357.449 552.955,422.74 503.847,471.847 C 454.74,520.955 389.449,548.00 320.00,548.00 Z M 320.00,608.00 L 320.00,608.00 C 496.731,608.00 640.00,464.731 640.00,288.00 C 640.00,111.269 496.731-32.00 320.00-32.00 C 143.269-32.00 0.00,111.269 0.00,288.00 C 0.00,464.731 143.269,608.00 320.00,608.00 ZM 280.00,168.00L 360.00,168.00L 360.00,88.00L 280.00,88.00zM 280.00,488.00L 360.00,488.00L 360.00,248.00L 280.00,248.00z" data-tags="notification, warning, notice, note, exclamation" />
<glyph unicode="&#xe05d;" d="M 320.00,608.00C 143.269,608.00,0.00,464.731,0.00,288.00s 143.269-320.00, 320.00-320.00s 320.00,143.269, 320.00,320.00S 496.731,608.00, 320.00,608.00z M 320.00,28.00
		c-143.594,0.00-260.00,116.406-260.00,260.00S 176.406,548.00, 320.00,548.00s 260.00-116.406, 260.00-260.00S 463.594,28.00, 320.00,28.00zM 280.00,448.00L 360.00,448.00L 360.00,368.00L 280.00,368.00zM 400.00,128.00L 240.00,128.00L 240.00,168.00L 280.00,168.00L 280.00,288.00L 240.00,288.00L 240.00,328.00L 360.00,328.00L 360.00,168.00L 400.00,168.00 z" data-tags="info, information" />
<glyph unicode="&#xe05f;" d="M 320.00,608.00C 143.269,608.00,0.00,464.731,0.00,288.00s 143.269-320.00, 320.00-320.00s 320.00,143.269, 320.00,320.00S 496.731,608.00, 320.00,608.00z M 280.00,488.00l 80.00,0.00 l0.00-80.00 l-80.00,0.00 L 280.00,488.00 z
	 M 400.00,88.00L 240.00,88.00 l0.00,40.00 l 40.00,0.00 L 280.00,288.00 l-40.00,0.00 l0.00,40.00 l 120.00,0.00 l0.00-200.00 l 40.00,0.00 L 400.00,88.00 z" data-tags="info, information" />
<glyph unicode="&#xe060;" d="M 320.00,608.00C 143.269,608.00,0.00,464.731,0.00,288.00s 143.269-320.00, 320.00-320.00s 320.00,143.269, 320.00,320.00S 496.731,608.00, 320.00,608.00z M 480.00,391.431L 376.57,288.00
	L 480.00,184.57L 480.00,128.00 l-56.57,0.00 L 320.00,231.43L 216.569,128.00L 160.00,128.00 l0.00,56.57 L 263.431,288.00L 160.00,391.431L 160.00,448.00 l 56.569,0.00 L 320.00,344.569L 423.43,448.00L 480.00,448.00 
	L 480.00,391.431 z" data-tags="cancel-circle, close, remove, delete" />
<glyph unicode="&#xe064;" d="M0.00,348.00l0.00-120.00 c0.00-11.045, 8.955-20.00, 20.00-20.00l 600.00,0.00 c 11.045,0.00, 20.00,8.955, 20.00,20.00l0.00,120.00 c0.00,11.045-8.955,20.00-20.00,20.00L 20.00,368.00 C 8.955,368.00,0.00,359.045,0.00,348.00z" data-tags="minus, minimize, subtract" />
<glyph unicode="&#xe065;" d="M 248.396,34.44l-248.667,244.75l 123.361,121.419l 125.306-123.332l 268.512,264.282l 123.361-121.419L 248.396,34.44z
		 M 67.445,279.19l 180.952-178.101l 324.16,319.051l-55.648,54.77l-268.512-264.282L 123.091,333.961L 67.445,279.19z" data-tags="checkmark, tick, correct, accept, ok" />
<glyph unicode="&#xe066;" d="M 620.00,368.00L 400.00,368.00 L 400.00,588.00 c0.00,11.045-8.955,20.00-20.00,20.00l-120.00,0.00 c-11.045,0.00-20.00-8.955-20.00-20.00l0.00-220.00 L 20.00,368.00 c-11.045,0.00-20.00-8.955-20.00-20.00l0.00-120.00 
	c0.00-11.045, 8.955-20.00, 20.00-20.00l 220.00,0.00 l0.00-220.00 c0.00-11.045, 8.955-20.00, 20.00-20.00l 120.00,0.00 c 11.045,0.00, 20.00,8.955, 20.00,20.00L 400.00,208.00 l 220.00,0.00 c 11.045,0.00, 20.00,8.955, 20.00,20.00l0.00,120.00 
	C 640.00,359.045, 631.045,368.00, 620.00,368.00z" data-tags="plus, add, sum" />
<glyph unicode="&#xe067;" d="M 546.264,514.263C 488.356,572.172, 408.366,608.00, 320.00,608.00C 182.82,608.00, 65.819,521.67, 20.314,400.382l 74.922-28.096
		C 129.364,463.252, 217.115,528.00, 320.00,528.00c 66.275,0.00, 126.263-26.875, 169.691-70.309L 400.00,368.00l 240.00,0.00 L 640.00,608.00 L 546.264,514.263zM 320.00,48.00c-66.275,0.00-126.266,26.87-169.695,70.305L 240.00,208.00L0.00,208.00 l0.00-240.00 l 93.746,93.746C 151.65,3.832, 231.633-32.00, 320.00-32.00
		c 137.181,0.00, 254.183,86.33, 299.688,207.618l-74.922,28.096C 510.637,112.748, 422.886,48.00, 320.00,48.00z" data-tags="loop, repeat, reload, refresh, update, upgrade, synchronize, media control, arrows" />
<glyph unicode="&#xe068;" d="M 640.00,448.00L 480.00,608.00l0.00-120.00 c-81.732,0.00-144.22-19.505-191.031-59.63c-3.281-2.813-6.428-5.688-9.476-8.609
		c 17.20-23.852, 30.448-48.448, 42.358-71.931C 352.051,384.331, 395.634,408.00, 480.00,408.00l0.00-120.00 l0.00,0.00 l0.00-120.00 c-135.279,0.00-165.704,60.85-204.222,137.889
		c-21.441,42.882-43.612,87.225-84.745,122.481C 144.22,468.495, 81.732,488.00,0.00,488.00l0.00-80.00 c 135.279,0.00, 165.704-60.85, 204.222-137.889
		c 21.441-42.882, 43.612-87.225, 84.745-122.481C 335.78,107.505, 398.269,88.00, 480.00,88.00l0.00-120.00 l 160.00,160.00L 480.00,288.00L 640.00,448.00zM0.00,168.00l0.00-80.00 c 81.732,0.00, 144.219,19.505, 191.031,59.63c 3.281,2.811, 6.428,5.688, 9.476,8.61
		c-17.20,23.851-30.449,48.448-42.358,71.931C 127.95,191.67, 84.368,168.00,0.00,168.00z" data-tags="shuffle, media control, random" />
<glyph unicode="&#xe081;" d="M0.00,608.00l0.00-640.00 l 640.00,0.00 L 640.00,608.00 L0.00,608.00 z M 600.00,8.00L 40.00,8.00 L 40.00,568.00 l 560.00,0.00 L 600.00,8.00 z M 480.00,468.00L 280.00,268.00l-120.00,120.00l-80.00-80.00l 200.00-200.00l 280.00,280.00L 480.00,468.00z" data-tags="checkbox-checked, tick, checked, selected" />
<glyph unicode="&#xe082;" d="M0.00,608.00l0.00-640.00 l 640.00,0.00 L 640.00,608.00 L0.00,608.00 z M 600.00,8.00L 40.00,8.00 L 40.00,568.00 l 560.00,0.00 L 600.00,8.00 z" data-tags="checkbox-unchecked, unchecked, square" />
<glyph unicode="&#xe083;" d="M0.00,608.00l0.00-640.00 l 640.00,0.00 L 640.00,608.00 L0.00,608.00 z M 600.00,8.00L 40.00,8.00 L 40.00,568.00 l 560.00,0.00 L 600.00,8.00 zM 160.00,448.00L 480.00,448.00L 480.00,128.00L 160.00,128.00z" data-tags="checkbox-partial, partial" />
<glyph unicode="&#xe084;" d="M 320.00,608.00C 143.269,608.00,0.00,464.731,0.00,288.00s 143.269-320.00, 320.00-320.00s 320.00,143.269, 320.00,320.00S 496.731,608.00, 320.00,608.00z M 320.00,48.00
		c-132.549,0.00-240.00,107.451-240.00,240.00c0.00,132.549, 107.451,240.00, 240.00,240.00c 132.549,0.00, 240.00-107.451, 240.00-240.00C 560.00,155.451, 452.549,48.00, 320.00,48.00zM 200.00,288.00A120.00,120.00 12780.00 1,0 440.00,288A120.00,120.00 12780.00 1,0 200.00,288z" data-tags="radio-checked" />
<glyph unicode="&#xe085;" d="M 320.00,608.00C 143.269,608.00,0.00,464.731,0.00,288.00s 143.269-320.00, 320.00-320.00s 320.00,143.269, 320.00,320.00S 496.731,608.00, 320.00,608.00z M 320.00,48.00
	c-132.549,0.00-240.00,107.451-240.00,240.00c0.00,132.549, 107.451,240.00, 240.00,240.00c 132.549,0.00, 240.00-107.451, 240.00-240.00C 560.00,155.451, 452.549,48.00, 320.00,48.00z" data-tags="radio-unchecked, circle" />
<glyph unicode="&#xe086;" d="M0.00,528.00L 240.00,288.00L 240.00,48.00L 400.00,88.00L 400.00,288.00L 640.00,528.00 z" data-tags="filter, funnel" />
<glyph unicode="&#xe087;" d="M0.00,568.00l0.00-560.00 l 640.00,0.00 L 640.00,568.00 L0.00,568.00 z M 240.00,208.00l0.00,120.00 l 160.00,0.00 l0.00-120.00 L 240.00,208.00 z M 400.00,168.00l0.00-120.00 L 240.00,48.00 l0.00,120.00 L 400.00,168.00 z M 400.00,488.00l0.00-120.00 L 240.00,368.00 L 240.00,488.00 L 400.00,488.00 z M 200.00,488.00l0.00-120.00 L 40.00,368.00 L 40.00,488.00 L 200.00,488.00 z
	 M 40.00,328.00l 160.00,0.00 l0.00-120.00 L 40.00,208.00 L 40.00,328.00 z M 440.00,328.00l 160.00,0.00 l0.00-120.00 L 440.00,208.00 L 440.00,328.00 z M 440.00,368.00L 440.00,488.00 l 160.00,0.00 l0.00-120.00 L 440.00,368.00 z M 40.00,168.00l 160.00,0.00 l0.00-120.00 L 40.00,48.00 L 40.00,168.00 z M 440.00,48.00l0.00,120.00 l 160.00,0.00 l0.00-120.00 L 440.00,48.00 z" data-tags="table, wysiwyg" />
<glyph unicode="&#xe088;" d="M 540.00,168.00c-28.225,0.00-53.70-11.711-71.882-30.519L 198.74,272.17C 199.561,277.327, 200.00,282.611, 200.00,288.00
	s-0.439,10.672-1.26,15.829l 269.377,134.689C 486.30,419.711, 511.775,408.00, 540.00,408.00c 55.229,0.00, 100.00,44.771, 100.00,100.00S 595.229,608.00, 540.00,608.00
	s-100.00-44.771-100.00-100.00c0.00-5.389, 0.44-10.672, 1.26-15.829L 171.882,357.481C 153.70,376.287, 128.225,388.00, 100.00,388.00c-55.229,0.00-100.00-44.772-100.00-100.00
	c0.00-55.23, 44.771-100.00, 100.00-100.00c 28.225,0.00, 53.70,11.711, 71.882,30.518l 269.377-134.689C 440.44,78.673, 440.00,73.389, 440.00,68.00
	c0.00-55.23, 44.771-100.00, 100.00-100.00s 100.00,44.77, 100.00,100.00C 640.00,123.228, 595.229,168.00, 540.00,168.00z" data-tags="share, social" />
<glyph unicode="&#xe089;" d="M 85.184,138.669c-46.998,0.00-85.183-38.334-85.183-85.047c0.00-46.971, 38.188-84.876, 85.183-84.876
		c 47.166,0.00, 85.309,37.905, 85.309,84.876C 170.491,100.335, 132.353,138.669, 85.184,138.669zM 0.098,390.544l0.00-122.661 c 79.865,0.00, 154.974-31.233, 211.536-87.82c 56.49-56.449, 87.676-131.898, 87.676-212.063l 123.201,0.00 
		C 422.51,201.013, 232.96,390.544, 0.098,390.544zM 0.242,608.00l0.00-122.722 c 284.864,0.00, 516.722-232.084, 516.722-517.278L 640.00-32.00 C 640.00,320.794, 352.966,608.00, 0.242,608.00z" data-tags="feed, rss, social" />
<glyph unicode="&#xe08a;" d="M 520.00,528.00L 120.00,528.00 c-66.00,0.00-120.00-54.00-120.00-120.00l0.00-240.00 c0.00-66.00, 54.00-120.00, 120.00-120.00l 400.00,0.00 c 66.00,0.00, 120.00,54.00, 120.00,120.00L 640.00,408.00 C 640.00,474.00, 586.00,528.00, 520.00,528.00z
		 M 600.00,168.00c0.00-21.236-8.359-41.289-23.534-56.466C 561.289,96.359, 541.237,88.00, 520.00,88.00L 120.00,88.00 c-21.236,0.00-41.289,8.359-56.465,23.534
		C 48.359,126.711, 40.00,146.764, 40.00,168.00L 40.00,408.00 c0.00,21.236, 8.359,41.289, 23.535,56.465S 98.764,488.00, 120.00,488.00l 400.00,0.00 
		c 21.236,0.00, 41.289-8.359, 56.466-23.535C 591.643,449.289, 600.00,429.236, 600.00,408.00L 600.00,168.00 zM 240.00,128.00L 440.00,288.00L 240.00,448.00 	z" data-tags="youtube, social" />
<glyph unicode="&#xe08e;" d="M 533.36,608.00L 106.679,608.00 C 48.006,608.00,0.00,559.99,0.00,501.317l0.00-426.64 C0.00,15.971, 48.006-32.00, 106.679-32.00l 426.681,0.00 
	C 592.031-32.00, 640.00,15.97, 640.00,74.678L 640.00,501.317 C 640.00,559.99, 592.031,608.00, 533.36,608.00z M 600.00,74.678c0.00-17.709-6.963-34.426-19.606-47.073
	C 567.755,14.962, 551.051,8.00, 533.36,8.00L 320.00,8.00 L 320.00,288.00 L 40.00,288.00 L 40.00,501.317 c0.00,17.692, 6.969,34.406, 19.623,47.06C 72.275,561.031, 88.987,568.00, 106.679,568.00
	L 320.00,568.00 l0.00-280.00 l 280.00,0.00 L 600.00,74.678 z" data-tags="delicious, social" />
<glyph unicode="&#xe08f;" d="M 526.257,239.575c-8.53,8.404-27.446,12.854-56.232,13.232c-19.486,0.215-42.939-1.501-67.606-4.955
		c-11.046,6.374-22.433,13.309-31.367,21.661c-24.039,22.447-44.105,53.608-56.61,87.871c 0.815,3.20, 1.509,6.012, 2.155,8.883
		c0.00,0.00, 13.541,76.912, 9.956,102.916c-0.494,3.566-0.796,4.601-1.755,7.372l-1.176,3.021c-3.685,8.495-10.905,17.496-22.229,17.005
		l-6.64,0.211l-0.182,0.004c-12.625,0.00-22.915-6.458-25.616-16.109c-8.211-30.271, 0.261-75.558, 15.614-134.211l-3.93-9.554
		c-10.992-26.797-24.769-53.788-36.924-77.599l-1.58-3.095c-12.788-25.024-24.39-46.266-34.909-64.264l-10.86-5.743
		c-0.79-0.418-19.402-10.261-23.767-12.902c-37.035-22.114-61.576-47.213-65.648-67.135c-1.295-6.356-0.331-14.491, 6.259-18.259
		l 10.504-5.286c 4.556-2.283, 9.361-3.439, 14.284-3.439c 26.378,0.00, 57.00,32.858, 99.185,106.479
		c 48.706,15.855, 104.159,29.035, 152.759,36.306c 37.036-20.855, 82.589-35.341, 111.339-35.341c 5.105,0.00, 9.508,0.486, 13.082,1.435
		c 5.514,1.46, 10.161,4.604, 12.995,8.87c 5.579,8.395, 6.709,19.957, 5.195,31.797C 532.10,232.264, 529.294,236.609, 526.257,239.575z
		 M 132.279,99.22c 4.81,13.151, 23.85,39.152, 52.002,62.222c 1.77,1.435, 6.13,5.52, 10.121,9.314
		C 164.964,123.804, 145.249,105.09, 132.279,99.22z M 299.021,483.196c 8.479,0.00, 13.302-21.371, 13.703-41.409
		c 0.40-20.038-4.286-34.10-10.099-44.505c-4.814,15.405-7.141,39.688-7.141,55.565C 295.484,452.847, 295.13,483.196, 299.021,483.196z
		 M 249.282,209.566c 5.906,10.572, 12.051,21.723, 18.331,33.549c 15.308,28.948, 24.974,51.597, 32.174,70.216
		c 14.319-26.052, 32.153-48.20, 53.116-65.945c 2.615-2.214, 5.386-4.439, 8.296-6.656C 318.569,232.295, 281.722,222.036, 249.282,209.566z
		 M 518.065,211.967c-2.596-1.624-10.034-2.563-14.817-2.563c-15.441,0.00-34.545,7.059-61.329,18.541
		c 10.293,0.761, 19.726,1.149, 28.188,1.149c 15.489,0.00, 20.075,0.068, 35.219-3.795S 520.661,213.591, 518.065,211.967zM 564.645,483.356l-89.29,89.289C 455.91,592.09, 417.50,608.00, 390.00,608.00L 90.00,608.00 C 62.50,608.00, 40.00,585.50, 40.00,558.00l0.00-540.00 c0.00-27.50, 22.50-50.00, 50.00-50.00l 460.00,0.00 
		c 27.50,0.00, 50.00,22.50, 50.00,50.00L 600.00,398.00 C 600.00,425.50, 584.09,463.911, 564.645,483.356z M 536.361,455.071c 1.956-1.956, 3.906-4.359, 5.80-7.071L 440.00,448.00 L 440.00,550.16 
		c 2.712-1.894, 5.115-3.844, 7.071-5.80L 536.361,455.071z M 560.00,18.00c0.00-5.42-4.58-10.00-10.00-10.00L 90.00,8.00 c-5.42,0.00-10.00,4.58-10.00,10.00L 80.00,558.00 
		c0.00,5.42, 4.58,10.00, 10.00,10.00l 300.00,0.00 c 3.02,0.00, 6.409-0.381, 10.00-1.065L 400.00,408.00 l 158.935,0.00 c 0.684-3.591, 1.065-6.979, 1.065-10.00L 560.00,18.00 z" data-tags="file-pdf, file, format, pdf" />
<glyph unicode="&#xe090;" d="M 464.393,368.00L 379.834,368.00L 320.001,279.855L 260.164,368.00L 175.609,368.00L 276.96,216.46L 162.601,48.00L 326.501,48.00L 326.501,105.235L 288.654,105.235L 320.001,152.106L 389.624,48.00L 477.40,48.00L 363.04,216.46 	zM 564.645,483.356l-89.29,89.289C 455.91,592.09, 417.50,608.00, 390.00,608.00L 90.00,608.00 C 62.50,608.00, 40.00,585.50, 40.00,558.00l0.00-540.00 c0.00-27.50, 22.50-50.00, 50.00-50.00l 460.00,0.00 
		c 27.50,0.00, 50.00,22.50, 50.00,50.00L 600.00,398.00 C 600.00,425.50, 584.09,463.911, 564.645,483.356z M 536.361,455.071c 1.956-1.956, 3.906-4.359, 5.80-7.071L 440.00,448.00 L 440.00,550.16 
		c 2.712-1.894, 5.115-3.844, 7.071-5.80L 536.361,455.071z M 560.00,18.00c0.00-5.42-4.58-10.00-10.00-10.00L 90.00,8.00 c-5.42,0.00-10.00,4.58-10.00,10.00L 80.00,558.00 
		c0.00,5.42, 4.58,10.00, 10.00,10.00l 300.00,0.00 c 3.02,0.00, 6.409-0.381, 10.00-1.065L 400.00,408.00 l 158.935,0.00 c 0.684-3.591, 1.065-6.979, 1.065-10.00L 560.00,18.00 z" data-tags="file-excel, file, format, excel, xlc" />
<glyph unicode="&#xe091;" d="M 399.861,310.567L 427.494,310.567L 395.611,169.206L 354.158,367.963L 287.564,367.963L 239.368,169.206L 203.233,367.963L 133.611,367.963L 204.294,48.036L 272.317,48.036L 320.001,237.229L 362.661,48.036L 425.371,48.036L 506.39,367.963L 399.861,367.963 	
		zM 564.645,483.356l-89.29,89.289C 455.91,592.09, 417.50,608.00, 390.00,608.00L 90.00,608.00 C 62.50,608.00, 40.00,585.50, 40.00,558.00l0.00-540.00 c0.00-27.50, 22.50-50.00, 50.00-50.00l 460.00,0.00 
		c 27.50,0.00, 50.00,22.50, 50.00,50.00L 600.00,398.00 C 600.00,425.50, 584.09,463.911, 564.645,483.356z M 536.361,455.071c 1.956-1.956, 3.906-4.359, 5.80-7.071L 440.00,448.00 L 440.00,550.16 
		c 2.712-1.894, 5.115-3.844, 7.071-5.80L 536.361,455.071z M 560.00,18.00c0.00-5.42-4.58-10.00-10.00-10.00L 90.00,8.00 c-5.42,0.00-10.00,4.58-10.00,10.00L 80.00,558.00 
		c0.00,5.42, 4.58,10.00, 10.00,10.00l 300.00,0.00 c 3.02,0.00, 6.409-0.381, 10.00-1.065L 400.00,408.00 l 158.935,0.00 c 0.684-3.591, 1.065-6.979, 1.065-10.00L 560.00,18.00 z" data-tags="file-word, file, format, word, docx" />
<glyph unicode="&#xe092;" d="M 37.836,608.00l 51.34-576.019L 319.649-32.00l 231.077,64.078L 602.164,608.00L 37.836,608.00 z M 490.394,419.608l-0.244,0.00 L 220.056,419.608 l 6.439-72.344
	L 483.975,347.264 l-19.401-216.881L 319.988,90.273l-0.144-0.049l-0.096,0.00 l-0.076,0.00 l-144.733,40.159l-9.894,110.945l 70.934,0.00 l 5.03-56.395
	l 78.664-21.197l 0.174,0.049l 78.709,21.245l 8.169,91.594L 161.886,276.623 L 142.827,490.248l 353.884,0.00 L 490.394,419.608z" data-tags="html5, w3c" />
<glyph unicode="&#xe093;" d="M 240.00,225.846L 240.00,297.237 c0.00,9.455, 4.185,18.398, 11.784,25.179c 7.60,6.78, 17.62,10.516, 28.216,10.516l0.00,35.694 
		c-44.00,0.00-80.00-32.125-80.00-71.389l0.00-53.541 c0.00-9.857-8.955-17.849-20.00-17.849l-20.00,0.00 l0.00-35.694 l 20.00,0.00 c 11.046,0.00, 20.00-7.994, 20.00-17.849l0.00-53.547 
		c0.00-39.259, 36.00-71.384, 80.00-71.384l0.00,35.695 c-10.596,0.00-20.617,3.735-28.216,10.516c-7.599,6.783-11.784,15.721-11.784,25.174l0.00,71.396 
		c0.00,9.856-8.955,17.846-20.00,17.846C 231.046,208.00, 240.00,215.994, 240.00,225.846zM 400.00,190.154l0.00-71.396 c0.00-9.453-4.185-18.391-11.784-25.174c-7.599-6.781-17.619-10.516-28.216-10.516l0.00-35.695 
		c 44.001,0.00, 80.00,32.125, 80.00,71.384l0.00,53.547 c0.00,9.857, 8.955,17.849, 20.00,17.849l 20.00,0.00 l0.00,35.694 l-20.00,0.00 c-11.045,0.00-20.00,7.994-20.00,17.849L 440.00,297.237 
		c0.00,39.265-35.999,71.389-80.00,71.389l0.00-35.694 c 10.599,0.00, 20.617-3.736, 28.216-10.519c 7.60-6.78, 11.784-15.723, 11.784-25.177l0.00-71.392 
		c0.00-9.854, 8.955-17.845, 20.00-17.845C 408.955,208.00, 400.00,200.006, 400.00,190.154zM 564.645,483.356l-89.29,89.289C 455.91,592.09, 417.50,608.00, 390.00,608.00L 90.00,608.00 C 62.50,608.00, 40.00,585.50, 40.00,558.00l0.00-540.00 c0.00-27.50, 22.50-50.00, 50.00-50.00l 460.00,0.00 
		c 27.50,0.00, 50.00,22.50, 50.00,50.00L 600.00,398.00 C 600.00,425.50, 584.09,463.911, 564.645,483.356z M 536.361,455.071c 1.956-1.956, 3.906-4.359, 5.80-7.071L 440.00,448.00 L 440.00,550.16 
		c 2.712-1.894, 5.115-3.844, 7.071-5.80L 536.361,455.071z M 560.00,18.00c0.00-5.42-4.58-10.00-10.00-10.00L 90.00,8.00 c-5.42,0.00-10.00,4.58-10.00,10.00L 80.00,558.00 
		c0.00,5.42, 4.58,10.00, 10.00,10.00l 300.00,0.00 c 3.02,0.00, 6.409-0.381, 10.00-1.065L 400.00,408.00 l 158.935,0.00 c 0.684-3.591, 1.065-6.979, 1.065-10.00L 560.00,18.00 z" data-tags="file-css, file, format, code, css" />
<glyph unicode="&#xe094;" d="M 631.52,83.78l-239.98,480.00C 378.00,590.88, 350.32,608.00, 320.00,608.00s-58.00-17.12-71.54-44.22
			l-239.98-480.00c-12.40-24.80-11.08-54.26, 3.50-77.86C 26.56-17.64, 52.30-32.00, 80.02-32.00l 479.94,0.00 c 27.74,0.00, 53.48,14.36, 68.04,37.92
			C 642.58,29.52, 643.90,58.98, 631.52,83.78z M 359.96,68.00c0.00-11.06-8.94-20.00-20.00-20.00l-40.00,0.00 c-11.06,0.00-20.00,8.94-20.00,20.00l0.00,40.00 c0.00,11.06, 8.94,20.00, 20.00,20.00l 40.00,0.00 
			c 11.06,0.00, 20.00-8.94, 20.00-20.00L 359.96,68.00 z M 359.96,228.00c0.00-11.06-8.94-20.00-20.00-20.00l-40.00,0.00 c-11.06,0.00-20.00,8.94-20.00,20.00L 279.96,428.00 c0.00,11.04, 8.94,20.00, 20.00,20.00l 40.00,0.00 c 11.06,0.00, 20.00-8.96, 20.00-20.00
			L 359.96,228.00 z" data-tags="warning, alert" />
<glyph unicode="&#xe095;" d="M 580.00,528.00L 60.00,528.00 C 26.86,528.00,0.00,501.14,0.00,468.00l0.00-360.00 c0.00-33.12, 26.86-60.00, 60.00-60.00l 520.00,0.00 c 33.14,0.00, 60.00,26.88, 60.00,60.00L 640.00,468.00 C 640.00,501.14, 613.14,528.00, 580.00,528.00z M 54.82,88.20
	L 40.20,102.84l 164.98,164.96l 14.62-14.64L 54.82,88.20z M 585.18,88.20l-164.98,164.96l 14.62,14.64l 164.98-164.96L 585.18,88.20z M 340.00,221.50
	L 340.00,208.00 l-40.00,0.00 l0.00,13.50 L 40.06,462.50l 25.44,25.44L 320.00,251.98L 574.50,487.94l 25.44-25.44L 340.00,221.50z" data-tags="envelope, mail, email, contact" />
<glyph unicode="&#xe013;" d="M 600.00-32.00L 40.00-32.00 c-22.08,0.00-40.00,17.92-40.00,40.00L0.00,568.00 c0.00,22.08, 17.92,40.00, 40.00,40.00l 480.00,0.00 l 120.00-120.00l0.00-480.00 
	C 640.00-14.08, 622.08-32.00, 600.00-32.00z M 160.00,68.00c0.00-11.06, 8.96-20.00, 20.00-20.00l 280.00,0.00 c 11.06,0.00, 20.00,8.94, 20.00,20.00l0.00,160.00 c0.00,11.06-8.94,20.00-20.00,20.00L 180.00,248.00 c-11.04,0.00-20.00-8.94-20.00-20.00L 160.00,68.00 z
	 M 440.00,508.00c0.00,11.06-8.94,20.00-20.00,20.00s-20.00-8.94-20.00-20.00l0.00-60.00 c0.00-11.06, 8.94-20.00, 20.00-20.00s 20.00,8.94, 20.00,20.00L 440.00,508.00 z M 560.00,468.00l-60.00,60.00l-20.00,0.00 l0.00-140.00 c0.00-11.06-8.94-20.00-20.00-20.00L 180.00,368.00 
	c-11.04,0.00-20.00,8.94-20.00,20.00L 160.00,528.00 L 100.00,528.00 C 88.96,528.00, 80.00,519.06, 80.00,508.00l0.00-440.00 c0.00-11.06, 8.96-20.00, 20.00-20.00l 20.00,0.00 L 120.00,268.00 c0.00,11.06, 8.96,20.00, 20.00,20.00l 360.00,0.00 c 11.06,0.00, 20.00-8.94, 20.00-20.00l0.00-220.00 l 20.00,0.00 
	c 11.06,0.00, 20.00,8.94, 20.00,20.00L 560.00,468.00 z" data-tags="floppy, disk, save, store" />
<glyph unicode="&#xe020;" d="M 600.00,608.00L 40.00,608.00 C 17.92,608.00,0.00,590.08,0.00,568.00l0.00-400.00 c0.00-22.08, 17.92-40.00, 40.00-40.00l 160.00,0.00 l-80.00-160.00l 20.00,0.00 l 144.00,160.00l 72.00,0.00 l 144.00-160.00l 20.00,0.00 
		l-80.00,160.00l 160.00,0.00 c 22.08,0.00, 40.00,17.92, 40.00,40.00L 640.00,568.00 C 640.00,590.08, 622.08,608.00, 600.00,608.00z M 600.00,188.00c0.00-11.06-8.94-20.00-20.00-20.00L 60.00,168.00 c-11.06,0.00-20.00,8.94-20.00,20.00L 40.00,548.00 c0.00,11.06, 8.94,20.00, 20.00,20.00
		l 520.00,0.00 c 11.06,0.00, 20.00-8.94, 20.00-20.00L 600.00,188.00 z M 417.56,295.38L 327.14,527.96l-98.76-185.80l-55.12,56.70L 80.00,340.74l 26.32-15.16l 12.66,7.88l 47.10,29.36
		l 72.10-74.24l 83.50,157.06l 92.32-237.58l 78.74,165.76l 32.08-68.28L 560.00,311.44l-67.08,142.64L 417.56,295.38z" data-tags="stats, monitor, board" />
<glyph unicode="&#xe097;" d="M 140.00,128.00L 20.00,128.00 c-11.06,0.00-20.00-8.94-20.00-20.00l0.00-120.00 c0.00-11.06, 8.94-20.00, 20.00-20.00l 120.00,0.00 c 11.06,0.00, 20.00,8.94, 20.00,20.00l0.00,120.00 
			C 160.00,119.06, 151.06,128.00, 140.00,128.00z M 120.00,28.00c0.00-11.06-8.94-20.00-20.00-20.00L 60.00,8.00 c-11.06,0.00-20.00,8.94-20.00,20.00l0.00,40.00 c0.00,11.06, 8.94,20.00, 20.00,20.00l 40.00,0.00 c 11.06,0.00, 20.00-8.94, 20.00-20.00L 120.00,28.00 z
			 M 620.00,88.00L 260.00,88.00 c-11.06,0.00-20.00-8.94-20.00-20.00l0.00-40.00 c0.00-11.06, 8.94-20.00, 20.00-20.00l 360.00,0.00 c 11.06,0.00, 20.00,8.94, 20.00,20.00l0.00,40.00 C 640.00,79.06, 631.06,88.00, 620.00,88.00z M 620.00,328.00L 260.00,328.00 
			c-11.06,0.00-20.00-8.94-20.00-20.00l0.00-40.00 c0.00-11.06, 8.94-20.00, 20.00-20.00l 360.00,0.00 c 11.06,0.00, 20.00,8.94, 20.00,20.00l0.00,40.00 C 640.00,319.06, 631.06,328.00, 620.00,328.00z M 140.00,608.00L 20.00,608.00 C 8.94,608.00,0.00,599.06,0.00,588.00l0.00-120.00 
			c0.00-11.06, 8.94-20.00, 20.00-20.00l 120.00,0.00 c 11.06,0.00, 20.00,28.94, 20.00,40.00L 160.00,588.00 C 160.00,599.06, 151.06,608.00, 140.00,608.00z M 120.00,508.00c0.00-11.06-8.94-20.00-20.00-20.00L 60.00,488.00 C 48.94,488.00, 40.00,496.94, 40.00,508.00L 40.00,548.00 
			c0.00,11.06, 8.94,20.00, 20.00,20.00l 40.00,0.00 c 11.06,0.00, 20.00-8.94, 20.00-20.00L 120.00,508.00 z M 140.00,368.00L 20.00,368.00 c-11.06,0.00-20.00-8.94-20.00-20.00l0.00-120.00 c0.00-11.06, 8.94-20.00, 20.00-20.00l 120.00,0.00 c 11.06,0.00, 20.00,8.94, 20.00,20.00l0.00,120.00 
			C 160.00,359.06, 151.06,368.00, 140.00,368.00z M 120.00,268.00c0.00-11.06-8.94-20.00-20.00-20.00L 60.00,248.00 c-11.06,0.00-20.00,8.94-20.00,20.00l0.00,40.00 c0.00,11.06, 8.94,20.00, 20.00,20.00l 40.00,0.00 c 11.06,0.00, 20.00-8.94, 20.00-20.00L 120.00,268.00 z
			 M 620.00,568.00L 260.00,568.00 c-11.06,0.00-20.00-8.94-20.00-20.00l0.00-40.00 c0.00-11.06, 8.94-20.00, 20.00-20.00l 360.00,0.00 c 11.06,0.00, 20.00,8.94, 20.00,20.00L 640.00,548.00 C 640.00,559.06, 631.06,568.00, 620.00,568.00z" data-tags="list" />
<glyph unicode="&#xe098;" d="M 140.00,368.00L 20.00,368.00 c-11.06,0.00-20.00-8.94-20.00-20.00l0.00-120.00 c0.00-11.06, 8.94-20.00, 20.00-20.00l 120.00,0.00 c 11.06,0.00, 20.00,8.94, 20.00,20.00l0.00,120.00 
			C 160.00,359.06, 151.06,368.00, 140.00,368.00z M 120.00,268.00c0.00-11.06-8.94-20.00-20.00-20.00L 60.00,248.00 c-11.06,0.00-20.00,8.94-20.00,20.00l0.00,40.00 c0.00,11.06, 8.94,20.00, 20.00,20.00l 40.00,0.00 c 11.06,0.00, 20.00-8.94, 20.00-20.00L 120.00,268.00 z
			 M 140.00,608.00L 20.00,608.00 C 8.94,608.00,0.00,599.06,0.00,588.00l0.00-120.00 c0.00-11.06, 8.94-20.00, 20.00-20.00l 120.00,0.00 c 11.06,0.00, 20.00,28.94, 20.00,40.00L 160.00,588.00 C 160.00,599.06, 151.06,608.00, 140.00,608.00z M 120.00,508.00c0.00-11.06-8.94-20.00-20.00-20.00L 60.00,488.00 
			C 48.94,488.00, 40.00,496.94, 40.00,508.00L 40.00,548.00 c0.00,11.06, 8.94,20.00, 20.00,20.00l 40.00,0.00 c 11.06,0.00, 20.00-8.94, 20.00-20.00L 120.00,508.00 z M 140.00,128.00L 20.00,128.00 c-11.06,0.00-20.00-8.94-20.00-20.00l0.00-120.00 c0.00-11.06, 8.94-20.00, 20.00-20.00l 120.00,0.00 
			c 11.06,0.00, 20.00,8.94, 20.00,20.00l0.00,120.00 C 160.00,119.06, 151.06,128.00, 140.00,128.00z M 120.00,28.00c0.00-11.06-8.94-20.00-20.00-20.00L 60.00,8.00 c-11.06,0.00-20.00,8.94-20.00,20.00l0.00,40.00 c0.00,11.06, 8.94,20.00, 20.00,20.00l 40.00,0.00 
			c 11.06,0.00, 20.00-8.94, 20.00-20.00L 120.00,28.00 z M 380.00,368.00l-120.00,0.00 c-11.06,0.00-20.00-8.94-20.00-20.00l0.00-120.00 c0.00-11.06, 8.94-20.00, 20.00-20.00l 120.00,0.00 c 11.06,0.00, 20.00,8.94, 20.00,20.00l0.00,120.00 
			C 400.00,359.06, 391.06,368.00, 380.00,368.00z M 360.00,268.00c0.00-11.06-8.94-20.00-20.00-20.00l-40.00,0.00 c-11.06,0.00-20.00,8.94-20.00,20.00l0.00,40.00 c0.00,11.06, 8.94,20.00, 20.00,20.00l 40.00,0.00 c 11.06,0.00, 20.00-8.94, 20.00-20.00
			L 360.00,268.00 z M 380.00,128.00l-120.00,0.00 c-11.06,0.00-20.00-8.94-20.00-20.00l0.00-120.00 c0.00-11.06, 8.94-20.00, 20.00-20.00l 120.00,0.00 c 11.06,0.00, 20.00,8.94, 20.00,20.00l0.00,120.00 C 400.00,119.06, 391.06,128.00, 380.00,128.00z M 360.00,28.00
			c0.00-11.06-8.94-20.00-20.00-20.00l-40.00,0.00 c-11.06,0.00-20.00,8.94-20.00,20.00l0.00,40.00 c0.00,11.06, 8.94,20.00, 20.00,20.00l 40.00,0.00 c 11.06,0.00, 20.00-8.94, 20.00-20.00L 360.00,28.00 z M 620.00,368.00l-120.00,0.00 c-11.06,0.00-20.00-8.94-20.00-20.00
			l0.00-120.00 c0.00-11.06, 8.94-20.00, 20.00-20.00l 120.00,0.00 c 11.06,0.00, 20.00,8.94, 20.00,20.00l0.00,120.00 C 640.00,359.06, 631.06,368.00, 620.00,368.00z M 600.00,268.00c0.00-11.06-8.94-20.00-20.00-20.00l-40.00,0.00 c-11.06,0.00-20.00,8.94-20.00,20.00
			l0.00,40.00 c0.00,11.06, 8.94,20.00, 20.00,20.00l 40.00,0.00 c 11.06,0.00, 20.00-8.94, 20.00-20.00L 600.00,268.00 z M 620.00,608.00l-120.00,0.00 c-11.06,0.00-20.00-8.94-20.00-20.00l0.00-120.00 c0.00-11.06, 8.94-20.00, 20.00-20.00l 120.00,0.00 c 11.06,0.00, 20.00,28.94, 20.00,40.00L 640.00,588.00 
			C 640.00,599.06, 631.06,608.00, 620.00,608.00z M 600.00,508.00c0.00-11.06-8.94-20.00-20.00-20.00l-40.00,0.00 c-11.06,0.00-20.00,8.94-20.00,20.00L 520.00,548.00 c0.00,11.06, 8.94,20.00, 20.00,20.00l 40.00,0.00 c 11.06,0.00, 20.00-8.94, 20.00-20.00L 600.00,508.00 z
			 M 380.00,608.00l-120.00,0.00 c-11.06,0.00-20.00-8.94-20.00-20.00l0.00-120.00 c0.00-11.06, 8.94-20.00, 20.00-20.00l 120.00,0.00 c 11.06,0.00, 20.00,28.94, 20.00,40.00L 400.00,588.00 C 400.00,599.06, 391.06,608.00, 380.00,608.00z M 360.00,508.00
			c0.00-11.06-8.94-20.00-20.00-20.00l-40.00,0.00 c-11.06,0.00-20.00,8.94-20.00,20.00L 280.00,548.00 c0.00,11.06, 8.94,20.00, 20.00,20.00l 40.00,0.00 c 11.06,0.00, 20.00-8.94, 20.00-20.00L 360.00,508.00 z M 620.00,128.00l-120.00,0.00 c-11.06,0.00-20.00-8.94-20.00-20.00l0.00-120.00 
			c0.00-11.06, 8.94-20.00, 20.00-20.00l 120.00,0.00 c 11.06,0.00, 20.00,8.94, 20.00,20.00l0.00,120.00 C 640.00,119.06, 631.06,128.00, 620.00,128.00z M 600.00,28.00c0.00-11.06-8.94-20.00-20.00-20.00l-40.00,0.00 c-11.06,0.00-20.00,8.94-20.00,20.00
			l0.00,40.00 c0.00,11.06, 8.94,20.00, 20.00,20.00l 40.00,0.00 c 11.06,0.00, 20.00-8.94, 20.00-20.00L 600.00,28.00 z" data-tags="grid" />
<glyph unicode="&#xe099;" d="M 499.64,413.64c 7.46-7.46, 19.56-7.46, 27.00,0.00l 105.66,83.18
	c 17.58-55.28, 5.16-118.04-38.70-161.90c-41.84-41.86-100.92-55.04-154.28-40.96l-125.32-125.32c 14.08-53.38, 0.88-112.44-40.94-154.28
	c-43.86-43.86-106.64-56.28-161.92-38.70l 83.22,105.64c 7.46,7.48, 7.46,19.56,0.00,27.02l-54.00,53.98c-7.46,7.46-19.56,7.46-27.00,0.00
	l-105.66-83.18c-17.58,55.28-5.16,118.02, 38.68,161.88c 41.86,41.86, 100.92,55.06, 154.30,40.96l 125.34,125.34
	c-14.10,53.36-0.90,112.44, 40.92,154.28c 43.86,43.86, 106.64,56.28, 161.94,38.72l-83.22-105.68c-7.44-7.44-7.44-19.54,0.00-26.98
	L 499.64,413.64z" data-tags="wrench, settings, options, preferences" />
<glyph unicode="&#xe09a;" d="M 240.96,268.78c-3.56-5.14-7.90-18.02-13.04-21.18c-5.14-3.14-10.94-5.34-17.38-6.56
	c-6.46-1.24-13.14-1.78-20.04-1.58l0.00-30.54 l 49.34,0.00 L 239.84,88.00 l 39.82,0.00 l0.00,199.92 l-31.68,0.00 C 246.86,280.30, 244.52,273.92, 240.96,268.78z M 460.00,448.00l 40.00,0.00 
	c 11.06,0.00, 20.00,8.96, 20.00,20.00L 520.00,588.00 c0.00,11.04-8.94,20.00-20.00,20.00l-40.00,0.00 c-11.06,0.00-20.00-8.96-20.00-20.00l0.00-120.00 C 440.00,456.96, 448.94,448.00, 460.00,448.00z M 140.00,448.00l 40.00,0.00 c 11.04,0.00, 20.00,8.96, 20.00,20.00L 200.00,588.00 
	c0.00,11.04-8.96,20.00-20.00,20.00L 140.00,608.00 C 128.96,608.00, 120.00,599.04, 120.00,588.00l0.00-120.00 C 120.00,456.96, 128.96,448.00, 140.00,448.00z M 600.00,528.00l-40.00,0.00 l0.00-100.00 c0.00-11.04-8.94-20.00-20.00-20.00l-120.00,0.00 c-11.06,0.00-20.00,8.96-20.00,20.00L 400.00,528.00 l-160.00,0.00 l0.00-100.00 
	c0.00-11.04-8.96-20.00-20.00-20.00L 100.00,408.00 c-11.04,0.00-20.00,8.96-20.00,20.00L 80.00,528.00 L 40.00,528.00 C 17.92,528.00,0.00,510.08,0.00,488.00l0.00-480.00 c0.00-22.08, 17.92-40.00, 40.00-40.00l 560.00,0.00 c 22.08,0.00, 40.00,17.92, 40.00,40.00L 640.00,488.00 
	C 640.00,510.08, 622.08,528.00, 600.00,528.00z M 600.00,28.00c0.00-11.06-8.94-20.00-20.00-20.00L 60.00,8.00 c-11.04,0.00-20.00,8.94-20.00,20.00L 40.00,348.00 c0.00,11.04, 8.96,20.00, 20.00,20.00l 520.00,0.00 c 11.06,0.00, 20.00-8.96, 20.00-20.00L 600.00,28.00 z
	 M 319.70,248.36l 99.36,0.00 c-18.72-23.04-33.78-46.50-45.30-74.10c-11.50-27.62-12.76-56.36-14.98-86.24l 42.62,0.00 
	c 0.18,13.32-3.90,27.70-1.02,43.12c 2.92,15.42, 7.04,30.64, 12.34,45.70c 5.34,15.04, 11.96,29.22, 19.92,42.54
	c 7.92,13.34, 17.06,24.58, 27.34,33.72l0.00,34.84 l-140.30,0.00 L 319.68,248.36 z" data-tags="calendar, date, schedule" />
<glyph unicode="&#xe051;" d="M 320.00,428.00c-77.188,0.00-140.00-62.813-140.00-140.00c0.00-77.188, 62.813-140.00, 140.00-140.00
			s 140.00,62.813, 140.00,140.00C 460.00,365.187, 397.188,428.00, 320.00,428.00z M 320.00,188.00c-55.235,0.00-100.00,44.765-100.00,100.00s 44.765,100.00, 100.00,100.00s 100.00-44.765, 100.00-100.00
			S 375.235,188.00, 320.00,188.00z M 320.00,468.00c 11.041,0.00, 20.00,8.959, 20.00,20.00L 340.00,528.00 c0.00,11.041-8.959,20.00-20.00,20.00s-20.00-8.959-20.00-20.00l0.00-40.00 
			C 300.00,476.959, 308.959,468.00, 320.00,468.00z M 320.00,108.00c-11.041,0.00-20.00-8.959-20.00-20.00l0.00-40.00 c0.00-11.041, 8.959-20.00, 20.00-20.00s 20.00,8.959, 20.00,20.00l0.00,40.00 
			C 340.00,99.041, 331.041,108.00, 320.00,108.00z M 475.548,415.291l 28.281,28.281c 7.813,7.813, 7.813,20.469,0.00,28.281
			c-7.813,7.813-20.469,7.813-28.281,0.00l-28.281-28.281c-7.813-7.813-7.813-20.469,0.00-28.281
			C 455.077,407.479, 467.735,407.479, 475.548,415.291z M 164.453,160.707l-28.281-28.281c-7.813-7.811-7.813-20.467,0.00-28.28
			s 20.469-7.813, 28.281,0.00l 28.281,28.28c 7.813,7.839, 7.813,20.47,0.00,28.281C 184.922,168.521, 172.265,168.548, 164.453,160.707z M 140.00,288.00
			c0.00,11.041-8.959,20.00-20.00,20.00L 80.00,308.00 c-11.041,0.00-20.00-8.959-20.00-20.00s 8.959-20.00, 20.00-20.00l 40.00,0.00 C 131.041,268.00, 140.00,276.959, 140.00,288.00z M 560.00,308.00l-40.00,0.00 
			c-11.041,0.00-20.00-8.959-20.00-20.00s 8.959-20.00, 20.00-20.00l 40.00,0.00 c 11.041,0.00, 20.00,8.959, 20.00,20.00S 571.041,308.00, 560.00,308.00z M 164.426,415.291
			c 7.814-7.813, 20.47-7.813, 28.281,0.00c 7.814,7.813, 7.814,20.469,0.00,28.281l-28.281,28.281c-7.813,7.813-20.467,7.813-28.281,0.00
			c-7.813-7.813-7.813-20.469,0.00-28.281L 164.426,415.291z M 475.574,160.735c-7.839,7.813-20.47,7.813-28.281,0.00
			c-7.814-7.813-7.839-20.469,0.00-28.281l 28.281-28.281c 7.811-7.813, 20.467-7.813, 28.28,0.00s 7.813,20.467,0.00,28.281L 475.574,160.735z" data-tags="sun, weather" />
<glyph unicode="&#xe052;" d="M 260.00,528.00c 11.041,0.00, 20.00,8.959, 20.00,20.00L 280.00,588.00 c0.00,11.041-8.959,20.00-20.00,20.00s-20.00-8.959-20.00-20.00l0.00-40.00 
			C 240.00,536.959, 248.959,528.00, 260.00,528.00z M 415.548,475.291l 28.281,28.281c 7.811,7.813, 7.811,20.469,0.00,28.281
			c-7.813,7.813-20.469,7.813-28.281,0.00l-28.281-28.281c-7.813-7.813-7.813-20.469,0.00-28.281
			C 395.077,467.479, 407.735,467.479, 415.548,475.291z M 20.00,328.00l 40.00,0.00 c 11.041,0.00, 20.00,8.959, 20.00,20.00s-8.959,20.00-20.00,20.00L 20.00,368.00 
			c-11.041,0.00-20.00-8.959-20.00-20.00S 8.959,328.00, 20.00,328.00z M 440.00,348.00c0.00-11.041, 8.959-20.00, 20.00-20.00l 40.00,0.00 c 11.041,0.00, 20.00,8.959, 20.00,20.00s-8.959,20.00-20.00,20.00l-40.00,0.00 
			C 448.959,368.00, 440.00,359.041, 440.00,348.00z M 104.426,475.291c 7.814-7.813, 20.47-7.813, 28.281,0.00c 7.814,7.813, 7.814,20.469,0.00,28.281
			L 104.426,531.854c-7.813,7.813-20.467,7.813-28.281,0.00c-7.813-7.813-7.813-20.469,0.00-28.281L 104.426,475.291z M 500.00,288.00
			c-6.64,0.00-13.202-0.469-19.74-1.406c-20.964,28.594-48.905,50.416-80.572,64.375C 398.074,426.75, 336.173,488.00, 260.00,488.00
			c-77.188,0.00-140.00-62.813-140.00-140.00c0.00-21.797, 5.417-42.188, 14.375-60.547C 59.844,284.406,0.00,223.235,0.00,148.00c0.00-77.188, 62.813-140.00, 140.00-140.00
			c 17.11,0.00, 33.855,3.125, 49.636,9.166C 225.832-14.396, 271.875-32.00, 320.00-32.00c 48.178,0.00, 94.166,17.604, 130.364,49.166
			C 466.145,11.125, 482.89,8.00, 500.00,8.00c 77.188,0.00, 140.00,62.813, 140.00,140.00S 577.188,288.00, 500.00,288.00z M 260.00,448.00c 49.765,0.00, 90.703-36.459, 98.385-84.063
			c-12.526,2.50-25.311,4.063-38.385,4.063c-57.422,0.00-110.625-24.765-147.969-66.563C 164.61,315.396, 160.00,331.072, 160.00,348.00
			C 160.00,403.235, 204.765,448.00, 260.00,448.00z M 500.00,48.00c-21.406,0.00-41.145,6.875-57.422,18.334C 413.23,30.969, 369.53,8.00, 320.00,8.00
			c-49.531,0.00-93.23,22.969-122.578,58.334C 181.172,54.875, 161.406,48.00, 140.00,48.00c-55.235,0.00-100.00,44.765-100.00,100.00s 44.765,100.00, 100.00,100.00
			c 9.688,0.00, 18.828-1.823, 27.656-4.426c 3.515-0.99, 7.084-1.771, 10.39-3.151c 5.469,10.702, 12.344,20.495, 19.974,29.688
			C 227.24,305.265, 270.702,328.00, 320.00,328.00c 12.656,0.00, 24.793-1.823, 36.563-4.636c 13.202-3.124, 25.678-7.864, 37.292-14.114
			c 29.114-15.469, 53.02-39.428, 68.071-68.829C 473.673,245.265, 486.511,248.00, 500.00,248.00c 55.235,0.00, 100.00-44.765, 100.00-100.00S 555.235,48.00, 500.00,48.00z" data-tags="cloudy, weather" />
<glyph unicode="&#xe053;" d="M 500.00,408.00c-6.64,0.00-13.202-0.469-19.74-1.406
	C 442.918,457.479, 383.985,488.00, 320.00,488.00s-122.89-30.521-160.26-81.406C 153.202,407.531, 146.64,408.00, 140.00,408.00C 62.813,408.00,0.00,345.187,0.00,268.00
	c0.00-77.188, 62.813-140.00, 140.00-140.00c 17.11,0.00, 33.855,3.125, 49.636,9.166C 225.832,105.604, 271.875,88.00, 320.00,88.00
	c 48.178,0.00, 94.166,17.604, 130.364,49.166C 466.145,131.125, 482.89,128.00, 500.00,128.00c 77.188,0.00, 140.00,62.813, 140.00,140.00
	C 640.00,345.187, 577.188,408.00, 500.00,408.00z M 500.00,168.00c-21.406,0.00-41.145,6.875-57.422,18.334C 413.23,150.97, 369.53,128.00, 320.00,128.00
	c-49.531,0.00-93.23,22.97-122.578,58.334C 181.172,174.875, 161.406,168.00, 140.00,168.00c-55.235,0.00-100.00,44.765-100.00,100.00s 44.765,100.00, 100.00,100.00
	c 13.515,0.00, 26.328-2.76, 38.047-7.604C 204.584,412.166, 257.864,448.00, 320.00,448.00s 115.418-35.834, 141.926-87.604
	C 473.673,365.24, 486.511,368.00, 500.00,368.00c 55.235,0.00, 100.00-44.765, 100.00-100.00S 555.235,168.00, 500.00,168.00z" data-tags="cloud, weather" />
<glyph unicode="&#xe09b;" d="M 320.00,428.00c-77.188,0.00-140.00-62.813-140.00-140.00c0.00-77.186, 62.813-140.00, 140.00-140.00
			s 140.00,62.814, 140.00,140.00C 460.00,365.187, 397.188,428.00, 320.00,428.00z M 320.00,468.00c 11.041,0.00, 20.00,8.932, 20.00,20.00L 340.00,528.00 c0.00,11.041-8.959,20.00-20.00,20.00
			c-11.067,0.00-20.00-8.959-20.00-20.00l0.00-40.00 C 300.00,476.933, 308.933,468.00, 320.00,468.00z M 320.00,108.00c-11.067,0.00-20.00-8.959-20.00-20.00l0.00-40.00 c0.00-11.067, 8.932-20.00, 20.00-20.00
			c 11.041,0.00, 20.00,8.932, 20.00,20.00l0.00,40.00 C 340.00,99.041, 331.041,108.00, 320.00,108.00z M 475.521,415.291l 28.281,28.281c 7.813,7.813, 7.813,20.469,0.00,28.281
			c-7.814,7.813-20.469,7.813-28.281,0.00l-28.281-28.281c-7.814-7.813-7.814-20.469,0.00-28.281
			C 455.052,407.48, 467.707,407.48, 475.521,415.291z M 164.426,160.683l-28.279-28.281c-7.815-7.813-7.815-20.47,0.00-28.281
			c 7.811-7.813, 20.466-7.813, 28.279,0.00l 28.281,28.281c 7.814,7.864, 7.814,20.469,0.00,28.281
			C 184.896,168.495, 172.24,168.548, 164.426,160.683z M 140.00,288.00c0.00,11.041-8.959,20.00-20.00,20.00L 80.00,308.00 c-11.067,0.00-20.00-8.959-20.00-20.00
			c0.00-11.067, 8.932-20.00, 20.00-20.00l 40.00,0.00 C 131.041,268.00, 140.00,276.933, 140.00,288.00z M 560.00,308.00l-40.00,0.00 c-11.067,0.00-20.00-8.959-20.00-20.00c0.00-11.067, 8.932-20.00, 20.00-20.00l 40.00,0.00 
			c 11.041,0.00, 20.00,8.932, 20.00,20.00C 580.00,299.041, 571.041,308.00, 560.00,308.00z M 164.401,415.291c 7.811-7.813, 20.469-7.813, 28.281,0.00
			c 7.811,7.813, 7.811,20.469,0.00,28.281l-28.281,28.281c-7.813,7.813-20.47,7.813-28.281,0.00c-7.813-7.813-7.813-20.469,0.00-28.281
			L 164.401,415.291z M 475.574,160.735c-7.866,7.813-20.47,7.813-28.281,0.00c-7.813-7.811-7.866-20.469,0.00-28.281l 28.281-28.281
			c 7.811-7.811, 20.467-7.811, 28.281,0.00c 7.811,7.813, 7.811,20.47,0.00,28.281L 475.574,160.735z" data-tags="sun, weather" />
<glyph unicode="&#xe09c;" d="M 260.00,528.00c 11.041,0.00, 20.00,8.959, 20.00,20.00L 280.00,588.00 c0.00,11.041-8.959,20.00-20.00,20.00s-20.00-8.959-20.00-20.00l0.00-40.00 
			C 240.00,536.959, 248.959,528.00, 260.00,528.00z M 415.548,475.291l 28.281,28.281c 7.811,7.813, 7.811,20.469,0.00,28.281
			c-7.813,7.813-20.469,7.813-28.281,0.00l-28.281-28.281c-7.813-7.813-7.813-20.469,0.00-28.281
			C 395.077,467.479, 407.735,467.479, 415.548,475.291z M 20.00,328.00l 40.00,0.00 c 11.041,0.00, 20.00,8.959, 20.00,20.00s-8.959,20.00-20.00,20.00L 20.00,368.00 
			c-11.041,0.00-20.00-8.959-20.00-20.00S 8.959,328.00, 20.00,328.00z M 440.00,348.00c0.00-11.041, 8.959-20.00, 20.00-20.00l 40.00,0.00 c 11.041,0.00, 20.00,8.959, 20.00,20.00s-8.959,20.00-20.00,20.00l-40.00,0.00 
			C 448.959,368.00, 440.00,359.041, 440.00,348.00z M 104.426,475.291c 7.814-7.813, 20.47-7.813, 28.281,0.00c 7.814,7.813, 7.814,20.469,0.00,28.281
			L 104.426,531.854c-7.813,7.813-20.467,7.813-28.281,0.00c-7.813-7.813-7.813-20.469,0.00-28.281L 104.426,475.291z M 500.00,288.00
			c-6.64,0.00-13.202-0.469-19.74-1.406c-20.964,28.594-48.905,50.416-80.572,64.375C 398.074,426.75, 336.173,488.00, 260.00,488.00
			c-77.188,0.00-140.00-62.813-140.00-140.00c0.00-21.797, 5.417-42.188, 14.375-60.547C 59.844,284.406,0.00,223.235,0.00,148.00c0.00-77.188, 62.813-140.00, 140.00-140.00
			c 17.11,0.00, 33.855,3.125, 49.636,9.166C 225.832-14.396, 271.875-32.00, 320.00-32.00c 48.178,0.00, 94.166,17.604, 130.364,49.166
			C 466.145,11.125, 482.89,8.00, 500.00,8.00c 77.188,0.00, 140.00,62.813, 140.00,140.00S 577.188,288.00, 500.00,288.00z M 320.00,368.00c-57.422,0.00-110.625-24.765-147.969-66.563
			C 164.61,315.396, 160.00,331.072, 160.00,348.00c0.00,55.235, 44.765,100.00, 100.00,100.00c 49.765,0.00, 90.703-36.459, 98.385-84.063
			C 345.86,366.437, 333.074,368.00, 320.00,368.00z" data-tags="cloudy, weather" />
<glyph unicode="&#xe09d;" d="M 500.00,408.00c-6.64,0.00-13.202-0.469-19.74-1.406
	C 442.918,457.479, 383.985,488.00, 320.00,488.00s-122.89-30.521-160.26-81.406C 153.202,407.531, 146.64,408.00, 140.00,408.00C 62.813,408.00,0.00,345.187,0.00,268.00
	c0.00-77.188, 62.813-140.00, 140.00-140.00c 17.11,0.00, 33.855,3.125, 49.636,9.166C 225.832,105.604, 271.875,88.00, 320.00,88.00
	c 48.178,0.00, 94.166,17.604, 130.364,49.166C 466.145,131.125, 482.89,128.00, 500.00,128.00c 77.188,0.00, 140.00,62.813, 140.00,140.00
	C 640.00,345.187, 577.188,408.00, 500.00,408.00z" data-tags="cloud, weather" />
<glyph unicode="&#xe09e;" d="M 500.00,528.00c-6.64,0.00-13.202-0.469-19.74-1.406
			C 442.918,577.479, 383.985,608.00, 320.00,608.00s-122.89-30.521-160.26-81.406C 153.202,527.531, 146.64,528.00, 140.00,528.00C 62.813,528.00,0.00,465.187,0.00,388.00
			s 62.813-140.00, 140.00-140.00c 17.11,0.00, 33.855,3.125, 49.636,9.166C 225.832,225.604, 271.875,208.00, 320.00,208.00c 48.178,0.00, 94.166,17.604, 130.364,49.166
			C 466.145,251.125, 482.89,248.00, 500.00,248.00c 77.188,0.00, 140.00,62.813, 140.00,140.00S 577.188,528.00, 500.00,528.00z M 281.25,8.00c0.00-22.11, 17.89-40.00, 40.00-40.00
			s 40.00,17.89, 40.00,40.00s-40.00,80.00-40.00,80.00S 281.25,30.11, 281.25,8.00z M 440.00,48.00c0.00-22.11, 17.89-40.00, 40.00-40.00s 40.00,17.89, 40.00,40.00s-40.00,80.00-40.00,80.00
			S 440.00,70.11, 440.00,48.00z M 120.00,128.00c0.00-22.11, 17.89-40.00, 40.00-40.00s 40.00,17.89, 40.00,40.00s-40.00,80.00-40.00,80.00S 120.00,150.11, 120.00,128.00z" data-tags="rainy, cloud, weather" />
<glyph unicode="&#xe09f;" d="M 500.00,528.00c-6.64,0.00-13.202-0.469-19.74-1.406
			C 442.918,577.479, 383.985,608.00, 320.00,608.00s-122.89-30.521-160.26-81.406C 153.202,527.531, 146.64,528.00, 140.00,528.00C 62.813,528.00,0.00,465.187,0.00,388.00
			s 62.813-140.00, 140.00-140.00c 17.11,0.00, 33.855,3.125, 49.636,9.166C 225.832,225.604, 271.875,208.00, 320.00,208.00c 48.178,0.00, 94.166,17.604, 130.364,49.166
			C 466.145,251.125, 482.89,248.00, 500.00,248.00c 77.188,0.00, 140.00,62.813, 140.00,140.00S 577.188,528.00, 500.00,528.00z M 500.00,288.00c-21.406,0.00-41.145,6.875-57.422,18.334
			C 413.23,270.969, 369.53,248.00, 320.00,248.00c-49.531,0.00-93.23,22.969-122.578,58.334C 181.172,294.875, 161.406,288.00, 140.00,288.00
			c-55.235,0.00-100.00,44.765-100.00,100.00s 44.765,100.00, 100.00,100.00c 13.515,0.00, 26.328-2.76, 38.047-7.604C 204.584,532.166, 257.864,568.00, 320.00,568.00
			s 115.418-35.834, 141.926-87.604C 473.673,485.24, 486.511,488.00, 500.00,488.00c 55.235,0.00, 100.00-44.765, 100.00-100.00S 555.235,288.00, 500.00,288.00z M 281.25,8.00
			c0.00-22.11, 17.89-40.00, 40.00-40.00s 40.00,17.89, 40.00,40.00s-40.00,80.00-40.00,80.00S 281.25,30.11, 281.25,8.00z M 440.00,48.00c0.00-22.11, 17.89-40.00, 40.00-40.00s 40.00,17.89, 40.00,40.00
			s-40.00,80.00-40.00,80.00S 440.00,70.11, 440.00,48.00z M 120.00,128.00c0.00-22.11, 17.89-40.00, 40.00-40.00s 40.00,17.89, 40.00,40.00s-40.00,80.00-40.00,80.00S 120.00,150.11, 120.00,128.00z" data-tags="rainy, weather, cloud" />
<glyph unicode="&#xe0a1;" d="M 320.00,608.00C 143.28,608.00,0.00,464.72,0.00,288.00s 143.28-320.00, 320.00-320.00s 320.00,143.28, 320.00,320.00S 496.72,608.00, 320.00,608.00z M 270.40,140.34
		L 123.16,287.60l 56.56,56.56l 90.66-90.70l 192.34,192.34l 56.56-56.56L 270.40,140.34z" data-tags="check-alt, checkmark, tick" />
<glyph unicode="&#xe0a0;" d="M 320.00,608.00C 143.28,608.00,0.00,464.72,0.00,288.00s 143.28-320.00, 320.00-320.00s 320.00,143.28, 320.00,320.00S 496.72,608.00, 320.00,608.00z M 480.00,248.00l-120.00,0.00 l0.00-120.00 l-80.00,0.00 l0.00,120.00 L 160.00,248.00 l0.00,80.00 l 120.00,0.00 
		L 280.00,448.00 l 80.00,0.00 l0.00-120.00 l 120.00,0.00 L 480.00,248.00 z" data-tags="plus-alt, add" />
<glyph unicode="&#xe0a2;" d="M 320.00,608.00C 143.28,608.00,0.00,464.72,0.00,288.00s 143.28-320.00, 320.00-320.00s 320.00,143.28, 320.00,320.00S 496.72,608.00, 320.00,608.00z M 480.00,248.00L 160.00,248.00 l0.00,80.00 l 320.00,0.00 L 480.00,248.00 z" data-tags="minus-alt, remove, delete" />
<glyph unicode="&#xe0a3;" d="M 320.00,608.00C 143.28,608.00,0.00,464.72,0.00,288.00s 143.28-320.00, 320.00-320.00s 320.00,143.28, 320.00,320.00S 496.72,608.00, 320.00,608.00z M 478.28,186.28
		l-56.56-56.56L 320.00,231.44l-101.72-101.72l-56.56,56.56L 263.44,288.00l-101.72,101.72l 56.56,56.56L 320.00,344.56l 101.72,101.72l 56.56-56.56
		L 376.56,288.00L 478.28,186.28z" data-tags="x-altx-alt, cancel, close" />
<glyph unicode="&#xe0a4;" d="M 480.00,608.00L 640.00,608.00L 640.00-32.00L 480.00-32.00zM 240.00,448.00L 400.00,448.00L 400.00-32.00L 240.00-32.00zM0.00,288.00L 160.00,288.00L 160.00-32.00L0.00-32.00z" data-tags="bars" />
<glyph unicode="&#xe0a5;" d="M 616.541,584.561c-31.239,31.239-81.877,31.239-113.116,0.00l-302.49-302.59
			c 27.039-7.04, 52.039-20.619, 72.337-40.939c 20.619-20.619, 33.759-45.779, 40.779-72.177l 302.49,302.59C 647.80,502.684, 647.80,553.321, 616.541,584.561z
			M 216.714,71.356c 31.239,31.239, 31.239,81.877,0.00,113.116s-81.877,31.239-113.116,0.00L0.00-32.00L 216.714,71.356z" horiz-adv-x="638.75" data-tags="pen-alt2, pen, write, blog" />
<glyph unicode="&#xe0a7;" d="M 254.22,88.70c-131.56-104.80-167.04-79.46-106.42,76.14C-21.20,156.12-34.76,197.22, 107.14,288.00
	c-141.90,90.80-128.34,131.86, 40.66,123.18C 87.20,566.76, 122.68,592.14, 254.22,487.30c 43.84,160.92, 87.70,160.92, 131.56,0.00
	c 131.54,104.84, 167.04,79.46, 106.40-76.12c 169.02,8.68, 182.56-32.38, 40.66-123.18c 141.90-90.78, 128.36-131.88-40.66-123.16
	c 60.62-155.58, 25.14-180.94-106.40-76.14C 341.94-72.24, 298.06-72.24, 254.22,88.70z" data-tags="star" />
<glyph unicode="&#xe0aa;" d="M 396.064,145.664C 316.352,174.40, 290.88,198.656, 290.88,250.592c0.00,31.168, 24.352,20.992, 35.04,78.08c 4.448,23.68, 25.952,0.384, 30.016,54.432
		c0.00,21.536-11.712,26.912-11.712,26.912s 5.984,31.904, 8.288,56.416C 355.392,497.024, 334.656,576.00, 224.00,576.00S 92.608,497.024, 95.488,466.432
		c 2.336-24.544, 8.32-56.416, 8.32-56.416S 92.064,404.672, 92.064,383.104c 4.128-54.048, 25.632-30.752, 30.016-54.432
		c 10.72-57.088, 35.072-46.912, 35.072-78.08c0.00-51.936-25.504-76.192-105.216-104.928c-9.60-3.424-32.48-8.80-51.936-17.216L0.00,0.00 l 512.00,0.00 
		c0.00,0.00,0.00,47.328,0.00,67.36S 476.064,116.832, 396.064,145.664z M 544.00,320.00L 544.00,416.00 l-64.00,0.00 l0.00-96.00 l-96.00,0.00 l0.00-64.00 l 96.00,0.00 l0.00-96.00 l 64.00,0.00 l0.00,96.00 l 96.00,0.00 L 640.00,320.00 L 544.00,320.00 z" data-tags="user-add" />
<glyph unicode="&#xe0ab;" d="M 480.00,102.40L 64.00,102.40 l0.00,288.00 l 83.04,0.00 c0.00,0.00, 22.048,28.672, 69.44,64.00L 32.00,454.40 c-17.664,0.00-32.00-14.336-32.00-32.00l0.00-352.00 c0.00-17.696, 14.336-32.00, 32.00-32.00l 480.00,0.00 c 17.696,0.00, 32.00,14.304, 32.00,32.00l0.00,119.872 
		l-64.00-52.64L 480.00,102.40 z M 427.584,324.80l0.00-113.60 L 640.00,377.632L 427.584,537.60l0.00-100.16 C 169.60,437.408, 169.60,182.40, 169.60,182.40C 242.624,302.336, 287.552,324.80, 427.584,324.80z" data-tags="export, share, outside" />
<glyph unicode="&#xe0ae;" d="M 157.312,486.304c-51.52,0.00-93.312-42.976-93.312-96.00s 41.792-96.00, 93.312-96.00c 93.28,0.00, 31.104-185.60-93.312-185.60l0.00-44.768 
		C 286.016,63.936, 373.024,486.304, 157.312,486.304z M 426.08,486.304c-51.52,0.00-93.312-42.976-93.312-96.00s 41.792-96.00, 93.312-96.00c 93.28,0.00, 31.104-185.60-93.312-185.60
		l0.00-44.768 C 554.816,63.936, 641.824,486.304, 426.08,486.304z" data-tags="quote, rdquo" />
<glyph unicode="&#xe0af;" d="M 598.08,212.928l-55.264,49.28c-16.00,14.272-16.00,37.568,0.00,51.84l 55.264,49.248c 16.00,14.272, 11.712,27.552-9.504,29.568l-73.248,6.944
	c-21.216,2.016-32.64,20.256-25.344,40.544l 38.88,108.224c 7.296,20.288-1.632,27.68-19.808,16.416l-86.432-53.44
	c-18.176-11.264-41.664-5.12-52.192,13.664l-31.328,55.872c-10.496,18.784-27.904,18.88-38.624,0.224L 271.392,530.688
	C 260.672,512.032, 236.032,504.064, 216.64,512.992l-51.20,23.52C 146.016,545.408, 131.104,535.104, 132.256,513.536L 135.04,461.856
	c 1.152-21.536-14.752-43.744-35.328-49.28L 50.272,399.296C 29.696,393.728, 25.92,377.536, 41.92,363.264l 55.264-49.248c 16.00-14.24, 16.00-37.568,0.00-51.808
	L 41.92,212.992c-16.00-14.304-11.776-28.064, 9.376-30.624l 67.04-8.128c 21.152-2.624, 32.96-21.504, 26.208-41.952l-34.40-104.256
	c-6.752-20.512, 2.88-28.512, 21.376-17.76l 78.816,45.568c 18.528,10.752, 43.392,4.80, 55.296-13.056l 32.736-49.184
	c 11.872-17.952, 29.76-16.928, 39.648,2.176l 28.768,55.424c 9.952,19.136, 33.696,26.944, 52.768,17.376l 55.488-27.744
	c 19.136-9.568, 33.824,0.256, 32.672,21.824l-2.784,51.68c-1.152,21.568, 14.752,43.744, 35.328,49.312l 49.408,13.248
	C 610.304,182.496, 614.08,198.688, 598.08,212.928z M 352.00,153.76L 288.00,153.76 l0.00,67.20 l 64.00,0.00 L 352.00,153.76 z M 352.00,256.128L 288.00,256.128 l0.00,166.40 l 64.00,0.00 L 352.00,256.128 z" data-tags="new, exclamation, notification" />
<glyph unicode="&#xe0ac;" d="M 316.096,582.368c-162.592-2.176-292.64-135.744-290.464-298.336c 2.176-162.496, 135.744-292.576, 298.336-290.40
	c 162.528,2.176, 292.608,135.744, 290.40,298.336C 612.224,454.496, 478.656,584.544, 316.096,582.368z M 315.232,108.80L 313.60,108.80 c-25.024,0.736-42.688,19.20-41.984,43.872
	c 0.704,24.224, 18.784,41.856, 43.008,41.856l 1.472-0.032c 25.728-0.768, 43.20-19.04, 42.432-44.416C 357.824,125.792, 340.00,108.80, 315.232,108.80z
	 M 420.544,317.824c-5.92-8.352-18.848-18.752-35.168-31.456l-17.984-12.416c-9.856-7.68-15.808-14.88-18.016-21.952
	c-1.792-5.632-2.624-7.072-2.784-18.432l-0.032-2.912L 277.984,230.656 l 0.192,5.824c 0.832,23.872, 1.44,37.888, 11.328,49.504
	c 15.52,18.208, 49.76,40.256, 51.20,41.184c 4.896,3.712, 9.024,7.904, 12.128,12.384c 7.20,9.92, 10.368,17.76, 10.368,25.408
	c0.00,10.656-3.168,20.512-9.408,29.28c-6.016,8.48-17.44,12.768-33.952,12.768c-16.384,0.00-27.584-5.216-34.304-15.872
	C 278.592,380.16, 275.136,368.672, 275.136,356.896l0.00-2.944 l-70.72,0.00 l 0.128,3.072c 1.824,43.328, 17.28,74.496, 45.952,92.704C 268.48,461.344, 290.88,467.20, 316.992,467.20
	c 34.208,0.00, 63.136-8.32, 85.856-24.704c 23.04-16.608, 34.72-41.504, 34.72-73.952C 437.568,350.368, 431.84,333.312, 420.544,317.824z" data-tags="help, question" />
<glyph unicode="&#xe0ad;" d="M 22.08,245.376l 43.616-10.816l 32.832,51.584L 36.128,301.60c-15.616,3.904-31.392-5.568-35.264-21.12
	C-3.008,264.992, 6.496,249.248, 22.08,245.376z M 591.392,237.056l-142.816-128.576l-167.936,129.952c-3.20,2.496-6.88,4.256-10.816,5.248
	l-22.368,5.504l-32.832-51.552l 35.168-8.672l 182.336-141.056c 5.28-4.128, 11.552-6.112, 17.856-6.112c 7.008,0.00, 14.016,2.496, 19.52,7.488
	l 160.864,144.80c 11.936,10.752, 12.832,29.056, 2.08,40.928C 621.728,246.88, 603.328,247.808, 591.392,237.056z M 277.888,378.208l 156.384-100.128
	c 13.184-8.416, 30.72-4.928, 39.648,7.904l 160.896,231.744c 9.12,13.184, 5.824,31.20-7.392,40.32s-31.328,5.792-40.48-7.36l-144.896-208.704
	L 284.704,442.72C 278.208,446.88, 270.304,448.288, 262.72,446.624S 248.576,440.384, 244.448,433.856L 4.544,57.248c-8.64-13.504-4.608-31.36, 8.96-39.936
	C 18.336,14.24, 23.744,12.80, 29.088,12.80c 9.632,0.00, 19.04,4.736, 24.576,13.44L 277.888,378.208z" data-tags="statistics, graph, plot" />
<glyph unicode="&#xe0b0;" d="M 447.968,435.20L 448.00,140.80L 192.00,288.00 z" data-tags="arrow-left, left, triangle, previous" />
<glyph unicode="&#xe0b1;" d="M 467.20,415.968L 172.80,416.00L 320.00,160.00 z" data-tags="arrow-down, triangle, down, bottom" />
<glyph unicode="&#xe0b2;" d="M 172.80,160.00L 467.20,160.00L 319.968,416.00 z" data-tags="arrow-up, triangle, up, top" />
<glyph unicode="&#xe0b3;" d="M 192.032,435.20L 192.00,140.80L 448.00,288.00 z" data-tags="arrow-right, triangle, right, next" />
<glyph unicode="&#xe0b4;" d="M 365.984,463.488c-13.376-13.056-144.064-150.272-144.064-150.272C 214.784,306.24, 211.232,297.12, 211.232,288.00s 3.552-18.24, 10.688-25.216
	c0.00,0.00, 130.688-137.216, 144.064-150.24c 13.376-13.056, 37.44-13.952, 51.712,0.00c 14.24,13.92, 15.36,33.344-0.032,50.40L 297.76,288.00l 119.904,125.056
	c 15.392,17.088, 14.272,36.512, 0.032,50.432C 403.392,477.408, 379.328,476.544, 365.984,463.488z" data-tags="arrow-left, left, previous" />
<glyph unicode="&#xe0b5;" d="M 495.456,333.984c-13.024-13.376-150.24-144.096-150.24-144.096C 338.24,182.752, 329.12,179.20, 320.00,179.20c-9.152,0.00-18.272,3.552-25.216,10.688
	c0.00,0.00-137.216,130.72-150.272,144.096c-13.024,13.376-13.92,37.408,0.00,51.712c 13.952,14.272, 33.376,15.392, 50.432,0.00L 320.00,265.76l 125.024,119.904
	c 17.088,15.392, 36.544,14.272, 50.432,0.00C 509.408,371.392, 508.544,347.328, 495.456,333.984z" data-tags="arrow-down, down, bottom" />
<glyph unicode="&#xe0b6;" d="M 495.456,242.016c-13.024,13.376-150.24,144.064-150.24,144.064C 338.24,393.216, 329.12,396.80, 320.00,396.80c-9.152,0.00-18.272-3.584-25.216-10.72
	c0.00,0.00-137.216-130.688-150.272-144.064c-13.024-13.376-13.92-37.44,0.00-51.712c 13.952-14.24, 33.376-15.392, 50.432,0.00L 320.00,310.208l 125.024-119.904
	c 17.088-15.392, 36.544-14.24, 50.432,0.00C 509.408,204.608, 508.544,228.672, 495.456,242.016z" data-tags="arrow-up, up, top" />
<glyph unicode="&#xe0b7;" d="M 274.016,463.488c 13.376-13.056, 144.064-150.272, 144.064-150.272C 425.248,306.24, 428.80,297.12, 428.80,288.00s-3.552-18.24-10.72-25.216
	c0.00,0.00-130.688-137.216-144.064-150.24c-13.376-13.056-37.408-13.952-51.712,0.00c-14.272,13.92-15.392,33.344,0.00,50.40L 342.24,288.00L 222.336,413.056
	c-15.392,17.088-14.272,36.512,0.00,50.432C 236.608,477.408, 260.672,476.544, 274.016,463.488z" data-tags="arrow-right, right, next" />
<glyph unicode="&#xe0bc;" d="M 229.92-5.44c 25.248-16.32, 54.496-27.36, 90.08-26.496
	c 35.584-0.864, 64.80,10.176, 90.048,26.496L 410.048,60.80 L 229.92,60.80 L 229.92-5.44 z M 406.272,99.232c0.00,139.392, 148.192,184.00, 137.088,322.848
	C 536.384,509.696, 477.024,608.00, 320.00,608.00S 103.616,509.696, 96.64,422.08c-11.104-138.88, 137.056-183.456, 137.056-322.848L 406.272,99.232 z M 164.416,417.024
	C 171.072,500.192, 227.648,542.368, 320.00,542.368c 92.352,0.00, 148.928-42.176, 155.552-125.344c 3.616-45.536-22.56-75.904-57.92-125.632
	c-26.016-36.672-56.80-79.968-71.20-136.352L 293.536,155.04 c-14.40,56.384-45.152,99.648-71.232,136.352C 186.976,341.152, 160.80,371.488, 164.416,417.024z" data-tags="light-bulb, lamp, bulb, idea, tip" />
<glyph unicode="&#xe0be;" d="M 576.00,480.00l-32.00,0.00 l0.00-480.00 l 32.00,0.00 c 35.20,0.00, 64.00,28.80, 64.00,64.00L 640.00,416.00 C 640.00,451.20, 611.20,480.00, 576.00,480.00z M0.00,416.00l0.00-352.00 c0.00-35.20, 28.80-64.00, 64.00-64.00l 32.00,0.00 L 96.00,480.00 L 64.00,480.00 C 28.80,480.00,0.00,451.20,0.00,416.00z M 428.80,546.976
	C 407.008,557.12, 372.224,576.00, 320.00,576.00S 232.992,557.12, 211.20,546.976L 211.20,480.00 L 140.80,480.00 l0.00-480.00 l 358.40,0.00 L 499.20,480.00 L 428.80,480.00 L 428.80,546.976 z M 390.40,480.00L 249.60,480.00 L 249.60,522.72 C 266.656,530.08, 291.136,537.60, 320.00,537.60
	s 53.312-7.488, 70.40-14.848L 390.40,480.00 z" data-tags="suitcase, luggage, portfolio" />
<glyph unicode="&#xe0a8;" d="M 485.504,544.00L 128.00,544.00 C 92.80,544.00, 64.00,515.20, 64.00,480.00l0.00-384.00 c0.00-35.20, 28.80-64.00, 64.00-64.00l 384.00,0.00 c 35.20,0.00, 64.00,28.80, 64.00,64.00L 576.00,443.936 L 485.504,544.00z M 448.00,352.00c0.00-17.60-14.40-32.00-32.00-32.00L 224.00,320.00 
	C 206.40,320.00, 192.00,334.40, 192.00,352.00L 192.00,512.00 l 256.00,0.00 L 448.00,352.00 z M 416.00,480.00l-64.00,0.00 l0.00-128.00 l 64.00,0.00 L 416.00,480.00 z" data-tags="disk, save, floppy, store" />
<glyph unicode="&#xf02f;" d="M 137.143,59.429l 320.00,0.00 l0.00,91.429 l-320.00,0.00 l0.00-91.429 zM 137.143,288.00l 320.00,0.00 l0.00,137.143 l-57.143,0.00 q-14.286,0.00 -24.286,10.00t-10.00,24.286l0.00,57.143 l-228.571,0.00 l0.00-228.571 zM 548.571,265.143q0.00,9.286 -6.786,16.071t-16.071,6.786t-16.071-6.786t-6.786-16.071t 6.786-16.071t 16.071-6.786t 16.071,6.786t 6.786,16.071zM 594.286,265.143l0.00-148.571 q0.00-4.643 -3.393-8.036t-8.036-3.393l-80.00,0.00 l0.00-57.143 q0.00-14.286 -10.00-24.286t-24.286-10.00l-342.857,0.00 q-14.286,0.00 -24.286,10.00t-10.00,24.286 l0.00,57.143 l-80.00,0.00 q-4.643,0.00 -8.036,3.393t-3.393,8.036l0.00,148.571 q0.00,28.214 20.179,48.393t 48.393,20.179l 22.857,0.00 l0.00,194.286 q0.00,14.286 10.00,24.286t 24.286,10.00l 240.00,0.00 q 14.286,0.00 31.429-7.143t 27.143-17.143l 54.286-54.286q 10.00-10.00 17.143-27.143t 7.143-31.429l0.00-91.429 l 22.857,0.00 q 28.214,0.00 48.393-20.179t 20.179-48.393z" horiz-adv-x="594.2857142857143" data-tags="print" />
<glyph unicode="&#xf0eb;" d="M 262.857,402.286q0.00-4.643 -3.393-8.036t-8.036-3.393t-8.036,3.393t-3.393,8.036q0.00,16.429 -19.286,25.357t-37.857,8.929q-4.643,0.00 -8.036,3.393t-3.393,8.036t 3.393,8.036t 8.036,3.393q 17.857,0.00 35.536-5.714t 31.071-19.286t 13.393-32.143zM 320.00,402.286q0.00,25.714 -12.321,47.857t-32.143,36.25t-43.929,22.143t-48.75,8.036t-48.75-8.036t-43.929-22.143t-32.143-36.25t-12.321-47.857 q0.00-36.071 24.286-64.286q 3.571-3.929 10.893-11.786t 10.893-11.786q 45.714-54.643 50.357-106.429l 81.429,0.00 q 4.643,51.786 50.357,106.429q 3.571,3.929 10.893,11.786t 10.893,11.786q 24.286,28.214 24.286,64.286zM 365.714,402.286q0.00-55.357 -36.786-95.714q-16.071-17.50 -26.607-31.071t-21.25-34.107t-12.143-38.393q 16.786-10.00 16.786-29.286q0.00-13.214 -8.929-22.857q 8.929-9.643 8.929-22.857q0.00-18.571 -16.071-28.929q 4.643-8.214 4.643-16.786 q0.00-16.429 -11.25-25.357t-27.679-8.929q-7.143-15.714 -21.429-25.00t-31.071-9.286t-31.071,9.286t-21.429,25.00q-16.429,0.00 -27.679,8.929t-11.25,25.357q0.00,8.571 4.643,16.786q-16.071,10.357 -16.071,28.929q0.00,13.214 8.929,22.857q-8.929,9.643 -8.929,22.857q0.00,19.286 16.786,29.286q-1.429,17.857 -12.143,38.393t-21.25,34.107t-26.607,31.071q-36.786,40.357 -36.786,95.714q0.00,35.357 15.893,65.893t 41.786,50.714t 58.571,31.786t 66.607,11.607 t 66.607-11.607t 58.571-31.786t 41.786-50.714t 15.893-65.893z" horiz-adv-x="365.7142857142857" data-tags="lightbulb, idea, tip" />
<glyph unicode="&#xf114;" d="M 548.571,139.429l0.00,251.429 q0.00,14.286 -10.00,24.286t-24.286,10.00l-251.429,0.00 q-14.286,0.00 -24.286,10.00t-10.00,24.286l0.00,22.857 q0.00,14.286 -10.00,24.286t-24.286,10.00l-114.286,0.00 q-14.286,0.00 -24.286-10.00t-10.00-24.286l0.00-342.857 q0.00-14.286 10.00-24.286t 24.286-10.00l 434.286,0.00 q 14.286,0.00 24.286,10.00t 10.00,24.286zM 594.286,390.857l0.00-251.429 q0.00-32.857 -23.571-56.429t-56.429-23.571l-434.286,0.00 q-32.857,0.00 -56.429,23.571t-23.571,56.429l0.00,342.857 q0.00,32.857 23.571,56.429t 56.429,23.571l 114.286,0.00  q 32.857,0.00 56.429-23.571t 23.571-56.429l0.00-11.429 l 240.00,0.00 q 32.857,0.00 56.429-23.571t 23.571-56.429z" horiz-adv-x="594.2857142857143" data-tags="folder-close-alt, directory, category" />
<glyph unicode="&#xf115;" d="M 636.071,275.50q0.00,12.50 -18.929,12.50l-388.571,0.00 q-14.286,0.00 -30.536-7.679t-25.536-18.75l-105.00-129.643q-6.429-8.571 -6.429-14.286q0.00-12.50 18.929-12.50l 388.571,0.00 q 14.286,0.00 30.714,7.857t 25.357,18.929l 105.00,129.643q 6.429,7.857 6.429,13.929zM 228.571,333.714l 274.286,0.00 l0.00,57.143 q0.00,14.286 -10.00,24.286t-24.286,10.00l-205.714,0.00 q-14.286,0.00 -24.286,10.00t-10.00,24.286l0.00,22.857 q0.00,14.286 -10.00,24.286t-24.286,10.00l-114.286,0.00 q-14.286,0.00 -24.286-10.00t-10.00-24.286 l0.00-304.643 l 91.429,112.50q 15.714,18.929 41.429,31.25t 50.00,12.321zM 681.786,275.50q0.00-22.143 -16.429-42.857l-105.357-129.643q-15.357-18.929 -41.429-31.25t-50.00-12.321l-388.571,0.00 q-32.857,0.00 -56.429,23.571t-23.571,56.429l0.00,342.857 q0.00,32.857 23.571,56.429t 56.429,23.571l 114.286,0.00 q 32.857,0.00 56.429-23.571t 23.571-56.429l0.00-11.429 l 194.286,0.00 q 32.857,0.00 56.429-23.571t 23.571-56.429l0.00-57.143 l 68.571,0.00 q 19.286,0.00 35.357-8.75t 23.929-25.179q 5.357-11.429 5.357-24.286z " horiz-adv-x="685.7142857142858" data-tags="folder-open-alt, open, directory, category, browse" />
<glyph unicode="&#xf0f3;" d="M 302.857,2.286q0.00,5.714 -5.714,5.714q-21.071,0.00 -36.25,15.179t-15.179,36.25q0.00,5.714 -5.714,5.714t-5.714-5.714q0.00-26.071 18.393-44.464t 44.464-18.393q 5.714,0.00 5.714,5.714zM 594.286,105.143q0.00-18.571 -13.571-32.143t-32.143-13.571l-160.00,0.00 q0.00-37.857 -26.786-64.643t-64.643-26.786t-64.643,26.786t-26.786,64.643l-160.00,0.00 q-18.571,0.00 -32.143,13.571t-13.571,32.143q 67.857,57.50 102.50,141.964t 34.643,178.036 q0.00,58.929 34.286,93.571t 94.286,41.786q-2.857,6.429 -2.857,13.214q0.00,14.286 10.00,24.286t 24.286,10.00t 24.286-10.00t 10.00-24.286q0.00-6.786 -2.857-13.214q 60.00-7.143 94.286-41.786t 34.286-93.571q0.00-93.571 34.643-178.036t 102.50-141.964z" horiz-adv-x="594.2857142857143" data-tags="bell-alt, alarm, notification" />
<glyph unicode="&#xf046;" d="M 502.857,275.857l0.00-113.571 q0.00-42.50 -30.179-72.679t-72.679-30.179l-297.143,0.00 q-42.50,0.00 -72.679,30.179t-30.179,72.679l0.00,297.143 q0.00,42.50 30.179,72.679t 72.679,30.179l 297.143,0.00 q 22.50,0.00 41.786-8.929q 5.357-2.50 6.429-8.214q 1.071-6.071 -3.214-10.357l-17.50-17.50q-3.571-3.571 -8.214-3.571q-1.071,0.00 -3.214,0.714q-8.214,2.143 -16.071,2.143l-297.143,0.00 q-23.571,0.00 -40.357-16.786t-16.786-40.357l0.00-297.143  q0.00-23.571 16.786-40.357t 40.357-16.786l 297.143,0.00 q 23.571,0.00 40.357,16.786t 16.786,40.357l0.00,90.714 q0.00,4.643 3.214,7.857l 22.857,22.857q 3.571,3.571 8.214,3.571q 2.143,0.00 4.286-1.071q 7.143-2.857 7.143-10.357zM 585.357,450.50l-290.714-290.714q-8.571-8.571 -20.357-8.571t-20.357,8.571l-153.571,153.571q-8.571,8.571 -8.571,20.357t 8.571,20.357l 39.286,39.286q 8.571,8.571 20.357,8.571t 20.357-8.571l 93.929-93.929l 231.071,231.071q 8.571,8.571 20.357,8.571t 20.357-8.571l 39.286-39.286 q 8.571-8.571 8.571-20.357t-8.571-20.357z" horiz-adv-x="594.2857142857143" data-tags="check, checkbox, correct, tick" />
</font>
</defs>
</svg>
